<?xml version="1.0"?>
<svg id="panzoom-element" class="whole-svg-area" xmlns="http://www.w3.org/2000/svg" version="1.2" baseProfile="tiny" width="800" height="413"
     viewBox="0 0 800 413" stroke-linecap="round" stroke-linejoin="round">
  <g fill="grey" stroke="white">
    <path class="geo-champ-location" id="Burgenland" d="M 684.32 336.48 684.79 336.29 684.64 336.11 685.31 334.92 684.77 334.37 685.49 332.95 685.46 330.48 685.87 328.9 687.73 327.48 688.2 327.45 688.23 325.87 689.29 324.72 689.78 324.94 690.8 324.23 690.92 322.4 691.63 320.72 694.28 320.79 694.17 317.82 694.71 316.66 695.07 316.61 695.6 315.84 695.32 314.93 695.63 314.77 695.96 313.68 696.51 313.64 696.78 311.99 698.16 311.29 700.12 311.83 700.36 311.53 699.7 311.58 699.72 310.77 699.36 310.63 699.59 310.34 699.02 310.81 698.86 310.01 698.45 310.09 698.57 309.78 698.12 309.4 698.62 309.07 697.63 308.67 697.79 308.1 696.97 307.64 696.99 307.09 696.41 306.78 696.83 306.84 696.85 306.34 696.59 306.47 696.43 306.09 695.78 305.99 695.9 305.79 696.37 306.02 696.52 305.77 696.26 305.51 695.83 305.61 695.76 305.11 696.19 304.89 695.98 304.55 696.51 304.37 696.11 304.18 696.43 304.07 696.41 303.62 695.97 303 695.35 303.03 694.59 301.2 693.79 301.52 693.99 301.26 693.56 300.99 693.3 299.94 692.6 299.19 692.9 298.98 692.67 298.25 692.95 297.97 692.52 297.12 693.3 296.15 692.91 295.45 693.06 293.78 693.39 293.7 693.29 293.15 694.04 293.25 694.35 292.93 694.29 292.54 694.69 292.24 694.46 291.94 694.69 290.95 695.29 289.93 695.22 288.81 694.97 288.75 695.42 288.29 695.18 288.22 694.96 286.43 694.73 286.35 694.99 285.6 694.48 284.84 694.61 284.53 694.22 284.32 694.45 284.23 694.15 284.13 694.05 283.34 694.36 283.29 694.11 283.24 694 282.42 693.65 282.28 693.77 281.79 693.27 281.55 693.5 281.35 693.06 281 693.07 280.37 692.63 280.3 692.95 280.17 692.38 279.81 692.57 279.64 692.3 279.24 692.63 279.12 692.18 278.74 692.33 278.28 691.75 278.01 691.72 277.22 692.02 276.93 691.67 276.97 691.69 276.28 691.41 276.09 691.62 275.94 691.33 275.6 691 275.74 691.18 275.14 691.62 275.15 691.72 274.53 691.37 274.4 691.86 273.15 691.48 272.64 691.61 272.21 691.26 272.32 691.54 271.89 691.05 271.75 691.31 271.44 690.68 270.49 691.14 270.19 690.53 269.41 690.57 268.6 690.22 268.56 690.44 268.49 690.28 268 689.25 266.94 689.35 266.49 688.99 266.42 689.31 265.73 688.99 265.5 689.1 265.15 688.48 265.01 688.83 264.69 688.56 264.09 688.82 263.64 688.32 263.3 688.43 261.97 688.07 261.66 687.86 261.92 687.75 261.58 687.5 261.77 687.38 261.47 687.81 261.38 687.48 261.31 687.68 260.77 687.09 260.16 687.32 259.62 687.09 259.55 687.44 259.2 686.48 258.32 686.58 257.69 685.72 257.6 685.92 257.48 685.61 257.15 685.96 256.94 685.49 256.89 685.82 256.53 685.44 256.37 685.55 255.71 685.21 256.01 684.77 255.5 684.96 255.18 684.71 255.22 684.48 254.68 684.12 254.91 684.13 254.59 683.49 254.12 685.45 253.27 685 252.18 688.52 251.18 688.56 249.76 689.24 248.18 689.94 247.99 690.52 247.35 690.93 247.67 691.69 247.38 691.85 247.72 690.95 247.94 691.11 248.65 690.37 249.2 691.54 250.27 692.54 249.41 692.97 249.48 692.77 248.84 693.02 248.4 692.73 248.46 692.2 247.62 692.28 246.43 694.93 246.64 697.36 245.5 699.64 244.98 700.3 244.73 702.56 244.88 705.1 244.01 706.91 242.43 707.03 241.62 707.71 241.26 708.38 240.17 709.18 239.95 710.02 239.26 710.92 239.49 711.96 237.96 713.1 237.56 713.36 236.38 712.46 235.89 713.78 235.53 714.25 235.05 714.39 234.58 713.97 234.13 715.58 232.69 715.37 232.28 716.19 231.4 716.71 229.81 716.44 228.29 715.68 227.97 714.79 226.37 713.36 225.34 713.95 223.17 713.63 222.34 715.31 219.59 715.23 216.98 716.2 216.35 716.69 216.39 717.57 215.37 716.98 214.3 717.61 213.68 719.09 213.47 719.39 213.08 719.45 212.44 718.92 211.18 719.39 210.1 717.06 205.76 717.51 204.46 716.82 204.31 715.11 204.7 713.36 203.64 712.45 203.47 712.63 202.46 711.97 201.93 711.69 200.43 710.58 198.7 710.37 197.11 710.49 195.94 710.88 195.33 710.61 194.65 711.11 193.96 711.1 192.26 710.42 190.97 711.34 188.37 708.72 187.27 708.34 187.23 708.22 187.64 707.67 187.55 707.63 186.95 708.59 184.5 709.34 184.32 711.77 184.87 712.38 185.24 711.67 185.48 712.03 186.48 711.71 187.43 712.59 188.36 713.37 187.77 714.18 185.82 715.06 185.41 715.4 185.65 715.83 185.09 715.96 183.1 716.89 182.27 718.75 181.5 718.18 180.94 719.79 179.1 719.57 178.68 715.47 175.3 716.28 175.58 717 174.97 717.69 174.89 718.98 174.07 719.07 173.52 719.64 173.05 720.86 173.88 722.1 172.98 721.63 172.55 722.43 171.57 721.73 171.25 722.28 170.77 722.8 170.9 723.05 169.65 722.7 169.14 723.16 168.25 722.77 168.36 722.6 168.05 723.41 167.63 723.37 167 724.37 165.74 725.25 165.37 725.54 164.72 726.18 164.6 727.38 163.72 727.78 164.12 728.7 164.05 729.72 163.14 731.16 163.45 731.38 163.78 731.43 163.46 732.21 163.27 732.15 162.93 732.76 162.92 733.32 164.29 735.81 167.3 736.51 167.71 736.93 169.14 737.9 169.54 738.48 170.16 738.88 171.55 739.34 171.35 740.47 169.12 741.57 168.45 743.9 165.12 744.66 164.61 744.41 163.08 744.66 162.1 746.61 161.47 746.49 160.46 747.25 159.59 747.84 160.23 748.68 159.65 749.6 159.69 751.38 158.61 751.34 157.93 751.66 157.65 750.92 156.27 750.86 155.53 750.91 155.25 751.45 155.29 751.42 151.47 751.7 151.87 752.43 151.37 753.87 151.85 754.39 151.51 754.79 151.75 755.23 151.53 755.04 151.31 755.27 151.1 755.01 151.03 755.91 151.1 755.86 150.86 756.71 151.31 756.8 150.93 757.35 151.01 757.46 150.68 757.63 150.87 759.58 149.44 760.05 149.8 760.86 149.41 761.37 148.46 761.59 148.72 761.67 148.45 762.42 148.56 762.34 148.3 762.76 148.52 763.05 148.14 764.3 148.42 765.32 147.68 765.18 146.94 764.68 146.69 764.32 146.87 764.55 146.27 764.98 145.83 765.44 145.66 765.54 145.87 766.15 143.94 767.09 144.2 766.98 143.94 767.34 143.69 767.16 143.25 767.56 143.34 767.41 142.86 767.82 142.79 768.75 141.4 769.67 142 770.09 141.77 770.42 140.97 771.05 141.26 771.1 140.98 771.32 141.37 773.24 141.93 773.62 142.55 773.15 143.6 773.64 144.47 776.75 144.91 778.85 145.79 779.52 146.65 779.18 146.53 778.95 148.08 779.29 147.98 779.42 148.47 780.04 148.46 780.76 147.55 781.65 143.9 783.59 140.44 779.37 137.38 778.41 137.25 779.06 135.77 779.39 136.04 779.74 135.89 780.08 135.46 780.05 134.72 781.32 135.1 782.1 136.69 782.86 135.83 783.68 135.54 784.56 136.44 781.95 137.63 785.48 138.76 785.91 136.05 788.18 134.68 787.96 134.16 788.41 133.29 789.07 133.9 789.51 133.79 789.11 134.56 789.77 134.9 789.61 135.21 791.24 136.11 790.75 136.61 791.35 137.38 790.98 137.27 789.46 138.32 789.52 138.83 789.19 139.11 789.97 139.49 789.34 140.73 790.88 141.44 789.04 143.08 790.73 143.77 791.13 144.48 789.13 146.79 791.54 148.48 793.55 146.61 795.36 148.11 796.34 147.76 797.14 148.14 799 150.15 796.34 152.24 792.41 156.02 794.8 157.45 792.29 161.68 794.61 162.66 793.7 165.33 793 166.32 793.93 167.05 792.14 170.99 791.65 171.01 791.35 170.54 788.37 171.56 788.47 171.84 787.5 172.39 785.17 172.26 784.43 173.85 788.91 176.81 788.44 177.61 788.77 177.85 788.5 178.31 789.99 179.11 789.89 179.52 791.52 181.28 789.42 183.04 789.18 183.6 789.99 184.78 790.33 186.08 790.64 186.04 791.05 187.62 791.57 190.32 791.68 193.68 794.21 196.66 788.74 197.52 782.13 199.37 775.51 200.73 771.6 200.8 771.22 200.55 770.51 195.69 769.39 197.38 767.72 198.46 766.75 201.89 758.48 202.46 755.33 196.22 755.18 194.25 748.58 193.31 748.36 193.57 746.62 192.62 745.98 190.97 745.08 191.34 743.36 190.88 742.3 191.58 741.63 191.15 741.18 191.73 738.96 192.42 737.03 192.51 736.83 192.86 737.17 193.8 736.02 194.34 735.92 194.87 737.66 196.98 736.56 198.63 735.16 198.97 734.42 198.71 734.07 199.55 733.45 199.56 732.78 200.13 732.31 199.96 731.7 200.92 730.95 201.15 730.79 202.08 729.93 202.29 729.83 203.7 729.42 203.54 728.95 203.8 728.48 203.53 727.56 201.38 726.87 201.49 726.59 204.94 724.37 206.39 726.34 207.65 727.55 207.75 728.75 208.39 730.57 208.53 731.39 209.76 731.94 209.66 732.41 210.09 733.42 210.2 734.2 208.97 735.14 209.69 735.73 209.63 737.87 210.76 740.44 212.78 742.62 213 746.37 211.25 748.74 211.96 749.63 214.53 751.06 214.64 750.41 216.01 751.44 218.68 751.07 219.85 750.26 220.3 750.42 220.67 751.26 221.64 752.49 221.35 753.01 221.61 754.08 223.71 754.7 223.66 754.9 224.18 755.46 224.04 755.83 224.52 754.68 225.6 755 227.19 753.99 227.97 753.44 229.19 751.29 230.35 750.58 229.53 749.58 230.92 751.65 234.88 750.63 236.85 750.89 237.79 749.56 238.52 749.84 238.88 749.29 239.26 748.25 239.43 747.36 240.04 746.68 241.83 746.14 241.6 745.86 241.97 745.78 241.73 744.26 243.19 743.32 243.21 743.31 243.43 743.69 243.4 743.45 243.73 742.62 243.78 742.45 244.01 742.82 244.16 742.78 244.43 742.05 244.88 742.31 245.31 742.15 245.8 739.07 246.05 738.37 245.39 737.01 245.66 736.8 245.4 735.95 245.4 735.64 246.25 735.03 246.3 735.31 247.61 733.95 248.83 733.9 247.7 733.1 248.02 733.16 247.2 732.56 247.5 732.66 246.83 733.23 246.28 732.64 245.8 731.51 245.83 729.76 245.27 728.47 246.23 728.97 248.15 730.29 249.86 729.63 249.83 729.26 250.46 729.89 251.78 729.9 252.5 729.35 253.35 729.5 253.96 728.88 253.92 727.57 254.7 728.75 255.64 729.19 256.69 730.15 256.71 730.93 257.5 730.8 257.94 731.4 258.82 731.51 259.83 732.14 260.82 732.97 263.02 733.03 263.99 733.88 265.69 732.85 266.08 732.66 266.97 732.99 268.47 731.71 270.02 731.05 269.56 729.54 270.03 729.78 270.47 727.98 270.16 727.86 270.57 729.06 270.79 729.26 273.08 729.12 273.61 728.8 273.7 728.69 274.83 728.99 275.55 728.56 275.92 728.76 276.79 727.9 276.8 727.37 277.19 726.89 276.76 726.71 277.59 727.22 278.82 727.04 279.19 728.14 280.73 729.4 280.61 730.38 280.08 730.83 280.21 730.64 280.39 731.15 281.84 731.94 283.14 731.56 283.36 731.6 284.56 731.36 284.86 730.82 284.81 730.43 285.73 730.55 286.7 731.04 287.18 732.61 287.04 734.82 286.02 737.59 285.83 738.27 287.25 738.93 287.64 739.05 289.19 735.97 289.91 736.14 291.95 734.27 292.25 734.51 293.2 733.76 293.41 733.43 292.84 733.24 293.57 732.4 293.85 732.6 294.34 732.29 294.47 732.6 295.34 733.55 295.92 733.19 297.03 733.43 297.74 734.43 297.48 734.96 298.41 735.87 298.12 737.41 298.71 738.54 299.4 738.58 300.23 737.15 301.31 736.54 301.16 736.22 301.52 733.91 301.87 733.18 302.45 732.39 302.47 731.88 302.97 730.67 303.27 730.21 303.71 730.63 303.92 730.11 304.67 731.09 305.72 732.71 304.18 733.95 304.89 734.27 305.8 734.73 305.58 734.92 306.29 735.91 307.47 738.05 308.41 738.06 308.71 737.36 308.93 737.18 308.72 736.46 309.3 735.61 309 735.39 309.73 734.6 310.05 734.01 309.53 732.94 309.62 732.52 308.91 732.14 309.03 731.6 308.55 731.04 308.85 731.03 310.29 729.65 310.43 728.3 309.93 727.49 308.65 725.47 308.95 724.4 309.69 723.68 309.51 723.32 309.79 722.68 308.6 722.34 308.44 721.87 308.74 720.81 308.03 720.21 309.06 720.39 309.32 720.04 310.27 717.96 309.36 715.96 310.1 715.44 309.64 715.39 308.38 714.47 307.72 713.74 309.26 713.86 310.3 713.13 312.4 713.32 315.72 712.58 315.97 711.08 315.56 710.47 316.03 709.8 316.88 710.29 317.94 710.07 317.95 710.15 318.31 709.3 318.31 708.81 319.1 708.34 318.93 708.43 319.21 707.91 319.4 707.72 320.12 707.23 320.06 707.21 319.32 707.05 319.6 706.4 319.1 706.18 319.67 705.97 319.11 705.34 319.25 704.68 320.22 703.34 324.77 702.51 325.29 701.63 325.11 701.2 326.3 700.66 326.46 700.74 326.88 700.18 326.99 699.85 328.08 699.17 328.25 698.61 329.75 696.24 330.89 695.11 332.24 694.76 331.68 694.32 331.61 693.05 333.49 692.21 333.47 691.61 333.99 691.67 334.58 690.9 335.75 690.49 335.47 690.15 336 689.25 335.48 688.96 336.21 688.17 336.77 688.31 336.34 687.59 335.48 686.15 336.35 685.56 337.18 684.9 337.06 684.32 336.48 Z"/>
    <path class="geo-champ-location" id="Kärnten" d="M 332.99 368.67 333.09 367.48 332.71 366.18 332.95 365.9 332.28 365.09 332.71 365.02 332.53 364.35 333.19 363.74 333.35 363.07 333.26 361.81 332.92 361.59 334.62 361.19 336.34 361.58 335.03 359.69 335.61 357.22 335.34 356.5 336.2 355.62 337.39 355.31 338.18 355.69 339.23 354.71 339.71 354.73 340.19 354.27 341.18 354.4 343.38 354 343.8 353.35 344.13 353.64 344.93 353.32 345.81 353.38 346.09 353.54 346.21 354.52 347.54 354.08 348.27 354.64 349.13 354.48 350.8 352.82 353.14 352.32 355.34 350.26 356.52 350.97 357.14 351.78 358.74 352.26 360.17 351.42 360.39 350.34 361.06 349.46 362.22 348.95 362.44 348.33 362.18 346.92 361.06 346.54 358.04 344.47 356.94 343.38 355.22 342.88 354.64 342.18 354.81 341.59 354.03 340.08 352.98 339.77 352.42 339.1 349.23 337.19 349.51 335.28 349.35 332.24 348.28 331.02 348.99 329.61 348.85 329.21 347.24 328.53 347.05 327.92 344.81 327.47 343.13 326.17 343.51 324.99 342.85 324.9 341.74 324.16 340.68 322.32 339.72 322.31 339.1 321.71 338.52 318.87 337.03 316.23 338.39 314.99 338.23 313.57 338.92 313.34 340.26 311.75 340.4 310.41 342.12 309.4 341.45 308.73 340.6 308.51 338.96 309.13 336.02 308.65 335.6 308.07 334.47 304.24 333.21 303.41 331.83 301.45 331.21 301.37 329.99 300.11 331.7 298.61 331.07 297.55 331 296.5 331.65 296.84 333.42 296.3 334.99 296.75 335.82 296.21 335.96 295.74 337.85 295.3 338.33 298.32 338.05 299.42 338.66 300.05 340.49 300.47 342.24 299.98 343.51 301.31 344.58 301.25 345.53 300.85 345.62 300.46 347.26 300.53 347.71 301.28 348.47 301.61 348.99 302.84 350.01 303.1 351.41 303.18 352.6 302.33 354.1 302.59 354.88 303.11 357.72 303.08 358.4 303.34 359.64 303.93 359.52 304.4 360.21 305.86 360.22 306.56 361.54 307.34 361.25 308.1 361.66 309.04 362.5 309.7 364.38 309.8 364.67 310.24 365.78 309.77 366.55 308.96 368.11 309.34 368.47 309.68 368.32 311.09 369.73 311.57 370.97 312.46 371.41 312.31 372.33 313.06 373.93 313.71 374.65 312.64 374.71 311.64 375.7 311.5 376.87 311.91 379.65 311.61 380.31 310.41 382.68 310.32 384.34 309.35 388.94 309 392.48 307.99 392.21 305.32 391.56 304.75 392.66 302.28 395.57 301.09 396.92 301.21 397.96 302.24 399.03 302.5 401.42 301.03 402.87 301.03 404.62 300.53 406.45 301.49 406.65 303.4 407.28 304.13 408.84 305.07 409.69 304.78 410.37 303.83 411.46 303.22 412.69 303.76 414.66 303.38 419.32 304.68 419.45 304.96 421.4 305.2 424.92 306.7 425.36 307.14 427.28 307.68 429.09 307.12 429.77 307.29 431.36 306.62 433.69 307.18 434.33 309.26 434.9 309.7 435.9 309.33 437.02 309.69 437.69 309.36 437.81 309.58 439.59 309.52 439.82 310.58 438.98 311.24 439.65 314.8 440.55 315.45 440.97 316.38 442.7 317.09 443.9 317.39 445.12 316.66 446.52 317.39 446.54 318.45 447.43 318.7 447.94 319.25 448.15 321.57 448.62 322.29 448.25 323.03 448.37 323.71 448.73 324.25 449.34 324.39 449.36 325.36 450.35 325.68 451.02 326.58 452.08 327.22 452.62 328.3 454.05 329.1 454.69 328.82 455.04 329.19 455.52 328.99 456.11 329.7 456.94 328.45 457.99 328.02 458.46 328.38 459.57 328.48 460.35 327.21 461.27 326.87 461.56 325.88 462.8 325.97 463.56 324.92 465.22 324.01 465.99 324.66 466.99 324.51 466.83 322.05 467.37 322.34 468.48 321.24 470.13 320.71 471.35 320.79 471.74 320.35 472.78 320.09 473.11 319.41 472.73 318.85 473.85 317.39 473.42 314.92 475.2 314.43 477.28 314.87 478.9 314.12 479.73 313.5 480.02 312.47 481.32 311 481.92 310.85 482.2 310.19 482.8 310.02 482.82 309.53 483.81 309.09 484.62 309.23 485.1 308.87 485.34 308.38 485.09 306.77 485.61 305.98 486.12 305.75 486.53 306.23 486.79 306.02 487.65 306.3 489.21 307.25 490.18 306.4 490.45 305.71 491.46 305.21 493.49 303.36 493.59 304.26 494.91 305.75 494.81 306.21 495.54 307.48 495.8 309.8 496.94 311.28 497.03 310.94 498.53 309.89 499.13 310.66 500.09 311.23 500.7 310.69 501.48 311.19 502.27 310.79 502.74 311.23 504.13 310.73 505.8 310.85 506.83 310.55 507.87 311.42 508.68 311.11 510.78 311.29 511.4 312.16 512.6 312.92 512 313.87 512.29 314.51 512 315.98 512.53 316.62 513 318.18 513.57 317.86 513.67 318.14 514.06 318.09 515.09 316.67 517.73 315.48 517.65 314.94 518.11 315.47 518.99 315.45 518.86 315.63 519.48 315.25 519.63 315.84 520.47 315.61 520.79 314.69 520.6 312.79 521.07 313.4 521.96 313.27 522.04 313.76 522.66 311.94 525.59 310.53 525.33 311.96 526.74 312.8 526.69 313.54 529.83 312.78 530.37 313.03 531.17 312.74 533.35 312.84 534.2 312.98 534.86 314.5 537.25 315.03 538.53 312.59 540.9 312.47 542.45 311.79 545.1 311.66 546.03 312.05 546.59 311.47 547.41 311.41 547.86 311.72 548.56 311.33 549.25 312.03 549 311.05 549.56 310.36 553.23 308.47 553.73 308.29 554.88 308.62 555.48 308.38 556.2 308.73 558.27 307.98 559.9 306.63 561.28 306.79 560.97 308.35 562.68 310.34 564.49 310.73 566.09 312.8 567.82 314.11 571.51 315.17 572.64 315.14 573.65 315.82 574.51 316.77 575.19 318.86 575.89 319.63 575.98 320.54 576.62 321.22 577.03 322.53 577.56 323.12 577.37 323.47 578.08 324.41 577.89 324.63 578.98 324.83 580.08 325.91 580.4 326.89 581.13 327.76 581.21 328.34 580.65 329.59 580.23 331.93 579.96 332.36 579.25 332.57 579.56 333.91 579.43 336.14 580.59 338.01 579.96 339.74 578.27 340.52 577.55 341.46 577.31 343.48 576.62 344.29 576.18 347.32 581.58 349.13 582 349.59 581.68 351.14 582.38 352.6 582.36 353.73 583.62 355.19 583.08 355.28 582.7 355.94 583.44 356.67 583.65 358.02 582.64 359.41 582.3 363.73 581.73 364.03 581.46 364.6 582.78 365.6 584.48 364.9 584.34 365.52 584.88 366.33 585.88 366.62 586.08 367.66 583.51 367.77 582.32 368.85 580.9 369.52 578.67 372.6 578.73 373.74 577.11 375.71 576.59 374.61 576.11 372.18 574.48 370.91 573.04 372.79 572.52 372.89 571.93 373.66 571.6 373.07 571.02 372.82 570.77 373.54 571.15 375.31 570.72 375.73 570.1 375.09 570.07 375.41 569.11 375.33 568.64 374.62 568.7 374.23 568.24 374.53 567.18 374.15 566.44 374.4 566.34 374.86 565.46 375.04 565.07 375.66 564.91 377.21 564.03 377.4 563.59 379.2 562.8 379.68 562.35 380.44 562.12 381.18 562.36 381.5 561.95 381.54 561.77 381.93 562.16 382.72 561.57 384.22 560.59 384.63 560.6 385.05 561.56 385.64 560.61 386.23 560.87 387.11 560.08 388.35 560.23 390.3 558.89 390.6 556.72 391.9 556.11 391.77 555.78 391.12 553.98 391.17 552.75 392.26 551.98 391.1 550.64 393.43 549.92 392.22 549.16 391.96 548.73 393.1 548.62 394.93 547.86 395.01 547.39 395.94 547.92 397.04 547.61 397.61 546.54 397.51 545.87 396.99 545.08 397.94 545.48 398.55 545.02 399.67 544.14 399.79 543.41 400.65 541.41 400.92 540.41 401.48 538.44 401.47 537.55 401.92 536.62 401.95 536.57 402.51 535.61 403.07 535.23 404.87 535.31 405.22 535.89 405.44 535.98 406.18 535.68 408.87 534.9 410.15 535.22 410.53 534.86 411.24 533.58 411.57 533.31 412 532.58 411.36 532.55 410.02 531.87 408.34 530.94 407.19 530.68 405.96 529.83 405.5 528.75 404.09 528.7 403.56 526.97 404.06 525.57 405.83 524.73 405.45 524.13 405.76 523.86 404.79 520.24 404.33 520.18 403.56 518.87 402.34 519.08 401.83 519.78 401.6 519.74 401.27 519.35 401.29 518.79 400.64 518.15 400.91 516.66 400.77 513.73 401.94 512.26 401.85 509.66 402.26 507.76 403.27 505.83 403.36 505.12 402.18 503.14 401.4 501.92 401.69 501.14 402.23 500.28 402.12 499.44 402.84 498.23 403.2 497.13 402.65 496.3 401.52 495.06 402.14 493.78 401.88 493.28 401.44 493.1 401.95 492.17 402.32 491.73 403 490.34 403.08 489.39 402.76 489.02 401.63 487.27 400.41 487.27 399.24 485.66 396.84 485.78 396.46 484.08 395.96 483.68 396.12 482.9 395.2 480.31 394.87 478.19 393.97 476.61 394.21 475.02 395.78 473.48 395.84 472.55 394.98 471.65 394.78 471.56 394.07 470.15 393.25 469.52 393.48 466.64 391.23 465.05 390.89 464.52 390.14 463.33 389.76 462.17 390.13 460.11 389.53 459.78 390.1 458.99 390.09 457.27 390.93 454.7 390.2 454.26 390.99 453.72 391.13 452.67 392.15 450.78 392.29 449.24 391.25 449.02 390.44 447.77 390.89 446.45 390.35 444.67 390.51 442.96 389.53 441.58 389.92 440.48 389.57 439.72 389.92 438.58 389.82 434.95 388.08 434.57 388.14 432.96 386.8 432.42 386.68 430.27 386.57 429.12 386.07 428.44 386.46 428.15 387.08 426.87 387.21 426.61 386.03 425.84 385.2 423.85 384.93 423.01 385.55 421.42 385.98 420.89 385.71 420.52 384.66 419.86 384.58 420.05 383.94 419.74 382.98 416.98 383.85 416.59 384.37 414.36 384.05 413.53 384.5 412.52 384.08 411.45 384.34 409.41 383.74 409.66 382.1 408.79 382.16 407.39 381.39 405.64 380.99 405.23 381.84 405.46 382.89 404.65 382.41 403.53 382.96 402.71 382.42 400.13 385.33 400.06 385.07 398.7 384.81 397.67 383.93 396.63 384.1 396.36 384.42 394.67 383.77 393.77 384.39 392.87 383.9 392.17 384.59 391.65 384.66 391.5 385.25 390.73 384.95 390.71 384.13 390.08 383.31 389.46 383.04 389.11 382.34 388.22 382.52 387.61 382.06 386.53 382.05 385.03 381.2 384.81 380.59 383.91 380.09 383.91 379.48 382.02 379.3 381.53 379.75 380.61 379.1 379.34 379.15 377.55 378.36 377.22 378.61 374.86 377.42 374.35 377.86 372.69 377.74 372.37 378.2 370.9 378.45 370.29 378.15 368.87 378.14 368.22 377.36 368.12 377.62 367.74 377.42 366.71 377.82 365.84 377.32 364.56 377.78 364.01 377.35 363.54 377.58 362.37 376.89 361.29 376.67 360.47 377.33 358.24 376.03 357.43 376.31 356.33 376.15 355.81 376.47 354.86 376.18 353.99 376.61 351.58 376.09 351.04 376.65 350.21 376.9 348.19 376.07 348.17 374.28 348.59 373.39 347.91 373.12 347.95 372.75 346.64 373.23 346.26 372.94 346.39 372.72 345.58 372.77 344.8 372.24 343.99 370.93 340.65 370.13 339.41 370.51 338.77 371.68 337.31 372.22 335.68 369.89 333.92 369.52 332.99 368.67 Z"/>
    <path class="geo-champ-location" id="Niederösterreich" d="M 548.2 198.56 549.01 197.43 547.91 196.99 546.58 195.77 545.31 192.2 547.33 190.77 547.36 190 545.19 188.28 545.04 187.05 546.34 185.66 546.17 184.6 546.54 184.28 546.16 183.84 545.08 183.52 544.95 182.83 546.29 181.5 547.04 181.32 547.55 180.76 549.91 180.05 551.31 177.7 549.9 175.59 549.98 175.02 548.74 173.65 548.25 172.42 546.74 171.38 546.58 169.74 544.62 170.27 544.1 171.23 542 170.62 541.05 169.8 540.62 169.88 540.09 169.2 538.57 168.98 538.17 168.56 536.09 168.67 535.56 168.01 534.06 167.74 532.38 166.17 531.69 164.96 529.95 163.97 529.01 163.81 528.38 162.76 526.9 162.23 526.04 161.56 523.15 161.04 522.02 160.37 521.88 158.39 521.35 158.17 519.86 155.91 519.97 155.55 519.27 154.87 519.51 154.21 518.07 153.47 518.32 153.11 517.99 152.7 518.47 150.69 517.66 150.23 518.34 148.88 517.8 147.78 519.1 147.35 519.41 146.84 519.25 146.56 518.31 146.83 518.22 146.1 519.19 144.66 521.91 142.75 521.31 141.99 519.09 141.13 520.1 139.32 520.01 138.32 519 137.02 520.05 135.19 520.65 133.04 520.13 131.82 520.49 130.75 520.2 129.48 521.13 125.71 524.36 123.22 525.6 123.19 528.43 124.15 531.24 125.6 533.81 129.56 535.26 130.5 536.23 131.94 537.42 132.88 539.04 133.3 539.01 133.88 540.27 134.75 542.18 135.4 543.59 134.53 543.62 133.57 544.6 132.02 545.68 132.08 547.11 132.99 547.47 132.55 552.55 131.14 553.97 130.45 556.69 130.03 558 129.13 559.02 126.99 559.16 124.49 560.61 124.09 561.64 123.34 562.34 123.37 562.99 124.05 565.1 123.23 567.68 123.57 568.26 124.17 569.78 127.51 571.34 128.38 571.4 128.03 570.35 127.6 570.77 126.9 570.4 126.68 570.24 125.91 569.29 125.84 569 125.28 570.09 123.54 569.97 123.26 570.55 123.38 571.27 122.81 570.78 122.25 570.83 120.94 573.01 119.4 572.59 118.43 572.74 115.85 572.39 113.38 572.02 112.98 572.29 111.71 572.21 109.69 571.61 109.09 570.93 109.28 569.59 108.8 568.5 109.27 567.78 109.11 568.34 106.66 568.71 106.38 568.56 103.96 569.2 101.3 569.75 100.58 569.72 99.12 566.88 98.04 565.48 99.15 564.73 99.01 564.99 98.27 565.75 97.56 566.32 97.57 567.91 96.09 568.08 95.16 567.35 94.92 567.18 94.52 567.41 94.26 566.98 93.71 565.87 93.63 565.06 92.86 564.15 92.68 564.24 92.14 562.72 89.55 560.31 88.77 560.14 88.26 560.47 86.84 559.34 85.08 560.67 84.78 561.71 83.99 561.44 83.09 561.85 82.86 561.93 82.07 562.89 81.58 564.61 82.06 564.86 80.96 563.95 80.72 563.89 79.59 562.26 78.3 561.57 78.31 560.26 77.64 559.21 77.76 556.95 77.35 557.4 76.48 556.28 75.23 555.52 74.72 553.73 74.45 553.08 73.4 552.29 73.46 551.45 72.92 550.98 73.1 550.49 72.79 549.53 73.56 548.84 73.14 548.44 72.27 547.93 72.27 547.08 72.47 546.44 73.15 546.45 74.12 545.77 74.12 545.89 73.44 545.13 72.64 544.49 72.61 544.15 71.43 543.26 70.17 542.6 69.86 541.07 69.81 540.99 69.24 541.32 69.07 542.05 69.48 542.54 69.11 542.72 67.77 544.04 66.38 543.27 64.06 544.04 60.8 543.73 60.53 543.64 59.14 543 59.01 543.57 56.52 544.43 54.55 544.31 53.54 545.1 51.79 545.78 51.02 547.28 50.69 547.42 49.75 549.16 49.36 550.32 48.3 551.19 46.5 552.59 45.85 551.76 43.77 552.85 41.57 552.77 40.69 552.29 39.99 552.65 39.64 552.51 38.89 554.22 38.07 554.61 38.59 555.96 38.02 556.32 38.71 556.62 38.56 556.86 39.04 557.48 39.26 558.6 38.42 559.94 38.54 560.44 39.1 560.32 39.81 560.66 40.08 561.5 39.72 562.53 40.52 563.7 40.06 565.16 40.54 566.02 41.33 566.84 41.07 567.07 41.39 567.26 41.24 567.63 41.8 570.01 39.55 569.92 38.33 567.27 36.89 567.5 36.43 567.26 35.98 567.66 35.38 567.44 35.1 567.96 34.59 567.7 33.14 568.85 31.57 568.65 29.57 569.02 28.72 570.3 28.68 570.28 28.11 569.57 27.03 569.12 27.05 569.01 23.7 570.12 23.67 570.03 21.15 570.58 21.13 570.4 20.42 570.83 20.15 570.95 19.16 570.62 17.28 570.07 15.96 569.45 15.42 569.48 14.91 570.19 14.18 569.1 11.12 569.02 8.77 569.22 7.3 569.49 7.66 569.82 6.34 571.16 5.48 570.87 5.28 571.42 3.65 570.35 2.75 570.89 1.9 571.63 2.44 573.38 1 575.48 2.36 576.83 1.7 577.97 1.88 578.19 3.11 577.9 3.42 577.96 4.15 580.74 4.49 581.83 4.95 582.38 4.12 584.51 4.32 584.88 3.82 585.3 4.28 587.3 4.91 587.46 6.22 587 6.28 586.82 6.83 587.04 7.14 587.95 7.31 588.07 7.64 587.7 8.18 588.34 8.51 588.79 9.68 588.06 10.46 587.38 12.22 587.77 12.37 587.89 12.89 588.44 12.53 588.9 12.66 589.58 11.92 590.95 12.57 592.87 10.32 594.37 9.88 595.82 10.25 596.62 9.92 598.19 10.79 598.21 10.18 598.93 10.06 598.53 9.17 598.66 8.77 599.19 8.79 600.1 6.76 599.51 5.77 599.79 4.39 600.93 4.71 601.32 5.22 601.07 5.96 602.59 6.92 603.23 6.46 604.23 7.15 605.27 5.78 605.66 6.02 606.91 5.74 608.82 6.14 611.1 7.53 611.52 8.59 612.61 8.9 613.59 9.98 614.83 10.68 617.47 10.89 618.04 11.57 619.29 10.52 620.2 11.63 622.78 12.88 623.26 15.41 624.03 16.23 628.74 17.6 630.71 18.88 634.04 18.68 634.21 18.4 634.96 18.79 636.1 20.4 636.76 20.44 636.67 20.06 636.97 20.02 638.71 20.88 642.3 24.76 644.26 23.93 644.84 24.07 644.77 24.33 648.85 25.1 650.54 23.2 651.38 21.5 656.31 21.94 657.23 21.02 657.7 20.95 658.84 22.46 657.78 23.29 657.91 23.66 659.43 23.91 660.16 24.71 661.23 24.27 660.84 23.47 661.4 23.56 661.81 24.16 661.75 25.35 662.28 26.25 662.84 26.06 663.15 25.13 663.58 25.22 664.4 26.67 663.6 26.79 663.11 26.02 662.94 26.75 663.2 27.36 665.9 26.63 666.11 27.21 667.06 27.4 666.41 28.82 667.5 29.63 668.1 29.55 668.2 28.27 668.83 28.41 668.73 29.06 669.92 28.93 670.09 29.43 669.31 30.37 669.12 31.72 670.17 32.74 671.08 32.94 673.83 35.58 679.91 38.21 681.18 39.16 685.1 40.44 686.05 40.34 686.56 39.95 688.82 40.72 688.84 40.31 689.94 40.61 690.33 39.73 693.94 40.46 700.07 40.79 701.56 41.14 702.07 40.45 703.05 40.39 704.99 40.91 705.56 40.6 706.48 41.48 708.43 41.77 709.08 41.59 709.67 39.5 709.98 40.21 710.4 40.01 711.13 40.55 710.63 41.32 711.5 41.71 711.51 42.15 713.3 41.63 713.38 42.01 713.96 41.64 713.87 41.26 714.42 40.87 714.42 40.33 714.77 40.3 715.09 40.72 715.61 39.97 715.91 39.79 716 40.04 716.59 39.59 716.86 37.93 717.41 37.09 718.98 36.03 719.37 34.67 718.98 34.08 720.15 32.08 720.18 30.75 721.49 29.88 721.31 29.21 721.72 29.06 723.19 30.21 727.05 29.96 727.33 30.63 727.96 30.22 728.83 28.6 729.49 28.06 732.12 31.16 733.89 31.32 735.07 32.08 735.1 32.73 738.7 32.97 739.18 32.12 740.01 32.02 741.03 32.1 742.28 32.68 742.51 33.13 742.34 33.53 743.46 34.1 743.8 34.87 744.24 37.4 743.55 38.89 744.56 40.83 746.4 39.4 746.74 39.61 746.96 39.2 748.81 39.06 749.32 39.43 749.28 39.8 749.66 39.68 750.02 39.97 750.1 40.37 751.16 39.88 751.86 41.63 752.42 41.89 752.28 42.17 752.93 41.87 754.21 42.87 754.44 42.52 754.56 42.8 755.64 42.51 756.53 42.94 756.77 43.69 757.33 43.17 757.24 42.7 758.98 42.91 759.49 42.77 760.17 41.89 760.94 42.64 763.8 42.36 764.76 40.64 765.46 41.76 766.66 41.69 767.09 41.35 767.54 41.84 767.17 42.15 767.36 42.6 768.69 43.74 768.96 45.08 768.75 45.75 768.98 45.93 768.66 46.16 768.85 46.43 768.46 46.54 768.25 47.81 768.59 48.17 769.76 48.35 769.5 49.19 769.7 50.51 769.34 51.59 769.52 52.53 770.33 52.86 770.15 54.53 769.49 55.41 769.48 56.02 771.72 56.77 771.98 58.49 771.17 59.37 771.86 62.05 771.59 63.88 772.59 65.57 772.45 66.78 773.66 68.19 773.22 69.66 772.4 70.69 772.72 71.55 770.48 71.88 770.62 72.91 769.78 73.18 769.86 74.89 770.2 75.74 769.64 75.87 768.95 75.31 768.06 75.65 767.46 76.43 768.15 77.24 767.59 78.06 767.57 78.8 766.6 78.69 765.97 80.26 765.09 80.58 764.55 81.58 765.03 82.13 764.97 82.54 763.67 83.15 763.92 85.39 765.26 87.75 763.98 89.25 764.63 91.36 764.12 92.25 764.16 93.41 763.61 93.65 762.73 93.37 762.4 93.95 763.28 95.23 763.13 96.33 763.73 98.5 764.57 98.86 766.72 98.62 766.98 99.06 766.42 99.78 766.66 100.31 770.58 101.99 770.59 102.46 769.39 103.76 769.23 104.49 769.9 106.3 772.02 109.38 772.14 110.05 772.74 110.37 774.77 110.39 776 111.37 775.47 112.51 775.08 115.75 776.8 118 776.92 119.12 778.55 122.8 778.65 125.52 782.61 128.24 784.21 130.03 785.28 130.16 787.23 129.46 788.09 131.84 788.46 131.99 788.57 132.49 787.9 132.64 788.41 133.29 787.96 134.16 788.18 134.68 785.91 136.05 785.48 138.76 781.95 137.63 784.56 136.44 783.68 135.54 782.86 135.83 782.1 136.69 781.32 135.1 780.05 134.72 780.08 135.46 779.74 135.89 779.39 136.04 779.06 135.77 778.41 137.25 779.37 137.38 783.59 140.44 781.65 143.9 780.76 147.55 780.04 148.46 779.42 148.47 779.29 147.98 778.95 148.08 779.18 146.53 779.52 146.65 778.85 145.79 776.75 144.91 773.64 144.47 773.15 143.6 773.62 142.55 773.24 141.93 771.32 141.37 771.1 140.98 771.05 141.26 770.42 140.97 770.09 141.77 769.67 142 768.75 141.4 767.82 142.79 767.41 142.86 767.56 143.34 767.16 143.25 767.34 143.69 766.98 143.94 767.09 144.2 766.15 143.94 765.54 145.87 765.44 145.66 764.98 145.83 764.55 146.27 764.32 146.87 764.68 146.69 765.18 146.94 765.32 147.68 764.3 148.42 763.05 148.14 762.76 148.52 762.34 148.3 762.42 148.56 761.67 148.45 761.59 148.72 761.37 148.46 760.86 149.41 760.05 149.8 759.58 149.44 757.63 150.87 757.46 150.68 757.35 151.01 756.8 150.93 756.71 151.31 755.86 150.86 755.91 151.1 755.01 151.03 755.27 151.1 755.04 151.31 755.23 151.53 754.79 151.75 754.39 151.51 753.87 151.85 752.43 151.37 751.7 151.87 751.42 151.47 751.45 155.29 750.91 155.25 750.86 155.53 750.92 156.27 751.66 157.65 751.34 157.93 751.38 158.61 749.6 159.69 748.68 159.65 747.84 160.23 747.25 159.59 746.49 160.46 746.61 161.47 744.66 162.1 744.41 163.08 744.66 164.61 743.9 165.12 741.57 168.45 740.47 169.12 739.34 171.35 738.88 171.55 738.48 170.16 737.9 169.54 736.93 169.14 736.51 167.71 735.81 167.3 733.32 164.29 732.76 162.92 732.15 162.93 732.21 163.27 731.43 163.46 731.38 163.78 731.16 163.45 729.72 163.14 728.7 164.05 727.78 164.12 727.38 163.72 726.18 164.6 725.54 164.72 725.25 165.37 724.37 165.74 723.37 167 723.41 167.63 722.6 168.05 722.77 168.36 723.16 168.25 722.7 169.14 723.05 169.65 722.8 170.9 722.28 170.77 721.73 171.25 722.43 171.57 721.63 172.55 722.1 172.98 720.86 173.88 719.64 173.05 719.07 173.52 718.98 174.07 717.69 174.89 717 174.97 716.28 175.58 715.47 175.3 719.57 178.68 719.79 179.1 718.18 180.94 718.75 181.5 716.89 182.27 715.96 183.1 715.83 185.09 715.4 185.65 715.06 185.41 714.18 185.82 713.37 187.77 712.59 188.36 711.71 187.43 712.03 186.48 711.67 185.48 712.38 185.24 711.77 184.87 709.34 184.32 708.59 184.5 707.63 186.95 707.67 187.55 708.22 187.64 708.34 187.23 708.72 187.27 711.34 188.37 710.42 190.97 711.1 192.26 711.11 193.96 710.61 194.65 710.88 195.33 710.49 195.94 710.37 197.11 710.58 198.7 711.69 200.43 711.97 201.93 712.63 202.46 712.45 203.47 713.36 203.64 715.11 204.7 716.82 204.31 717.51 204.46 717.06 205.76 719.39 210.1 718.92 211.18 719.45 212.44 719.39 213.08 719.09 213.47 717.61 213.68 716.98 214.3 717.57 215.37 716.69 216.39 716.2 216.35 715.23 216.98 715.31 219.59 713.63 222.34 713.95 223.17 713.36 225.34 714.79 226.37 715.68 227.97 716.44 228.29 716.71 229.81 716.19 231.4 715.37 232.28 715.58 232.69 713.97 234.13 714.39 234.58 714.25 235.05 713.78 235.53 712.46 235.89 713.36 236.38 713.1 237.56 711.96 237.96 710.92 239.49 710.02 239.26 709.18 239.95 708.38 240.17 707.71 241.26 707.03 241.62 706.91 242.43 705.1 244.01 702.56 244.88 700.3 244.73 699.64 244.98 699.12 244.42 698.43 244.39 698.32 243.96 696.29 242.13 696.23 241.28 695.28 240.33 695.37 239.42 695.87 239.07 695.31 237.84 694.66 238.04 694.19 237.64 694.27 237.17 693.41 237.16 693.93 236.59 693.71 235.81 693.97 235.04 693.42 234.84 693.03 233.53 693.56 232.92 693.86 231.45 692.94 232.03 692.74 231.61 693.28 230.82 692.81 230.65 692.53 229.34 691.65 229.72 691.31 229.52 690.94 230.54 691.01 231.52 690.55 232.14 689.69 232.39 689.46 233.43 689.01 232.87 688.02 233.08 687.88 235.05 688.1 235.47 687.32 235.78 686.12 234.77 685.51 233.34 684.61 232.83 684.01 231.68 682.78 230.92 681.84 230.89 681.28 231.22 678.37 230.57 676.52 231.12 674.38 229.76 672.01 229.2 671.8 228.38 670.72 226.78 670.84 224.23 669.08 222.98 667.65 222.7 667.08 223.01 666.62 223.9 664.81 223.65 664.46 220.79 664.9 220.11 664.77 219.16 665.55 218.33 666.19 216.5 665.57 215.41 664.04 215.96 663.07 215.25 662.67 213.64 661.82 212.87 660.1 213.37 658.43 212.68 657.67 212.83 657.47 212.29 656.41 212.72 655.7 213.52 653.76 214.07 653.39 213.87 653.8 213.02 653.69 212.66 652.66 211.98 651.67 211.88 651.96 209.12 650.73 206.02 650.83 204.95 650.32 204.15 650.74 202.69 650.58 201.83 648.42 201.66 647.88 202.88 646.58 203.89 645.64 202.21 643.7 201.11 642.65 201.14 642.04 201.48 641.12 199.28 640.17 198.13 639.77 196.69 638.87 195.87 636.65 196.49 634.98 196.42 634.11 197.06 633.34 196.91 633.05 196.46 630.7 197.09 629.89 196.83 629.17 197.04 628.57 196.04 629.16 195.65 629.38 194.66 628.54 193.85 627.82 193.6 626.74 193.73 625.98 193.38 623.53 193.59 622.88 193.12 622.37 193.16 621.12 190.39 620.56 190.29 619.44 191.33 618.2 191.4 617.37 189.01 617.63 187.08 617.1 186.78 616.08 187.11 616 186.52 614.33 185.22 612.85 185.51 612.64 185.19 611.19 185.26 610.46 184.93 609.97 185.03 609 186.05 608.26 185.75 607.73 185.82 607.38 186.24 606.38 186.16 605.81 187.9 606.11 189.29 605.71 189.51 605.68 190.41 605.32 190.9 602.73 190.45 602.24 190.69 599.77 189.71 598.01 190.18 597.8 191.03 597.09 191.47 596.95 193.04 596.37 193.47 596.54 194.17 597.36 194.39 597.13 194.67 597.41 195.29 596.3 196.82 594.61 196.35 593.08 196.85 592.06 196.14 590.59 196.35 590.01 195.73 589.07 197.06 589.31 197.62 589.1 197.96 584.85 198.94 583.78 198.75 581.63 199.18 579.11 197.32 578.55 197.35 577.74 198.1 575.24 199.16 574.11 199.38 572.68 198.87 572.16 199.87 570.54 200.58 569.34 202.3 568.44 203.03 568.08 204.07 566.76 204.08 566.53 204.36 562.73 203.35 562.68 201.75 560.97 199.46 558.84 200.65 557.88 199.89 558.07 199.15 556.55 199.1 555.64 200.22 554.56 200.09 551.25 201.97 550.27 200.64 549.47 200.46 548.41 199.68 547.96 199.15 548.2 198.56 Z M 714.55 111.14 713.54 110.96 712.95 109.93 712.24 110.2 712.67 110.71 711.36 111.48 711.05 112.07 710.19 111.94 709.58 112.62 708.69 113 708.12 112.78 706.96 113.26 706.69 113.86 707.22 113.84 707.52 114.25 706.57 115.23 704.47 115.77 705.04 115.9 705.15 116.21 704.5 117.02 703.97 117.16 703.79 118.13 702.24 118.43 701.78 117.75 702.13 116.87 701.38 116.61 698.77 114.57 698.41 114.76 698.43 115.79 697.5 116.81 697.25 117.84 697.25 119.17 697.95 119.74 697.91 120.1 697.66 119.91 696.5 120.98 697.81 120.99 697.54 121.51 697.86 122.32 699.11 122.99 698.34 123.77 698.92 124.13 698.23 126.66 696.45 129.06 697.98 130.11 698.25 131.63 698.78 131.39 700.84 131.68 699.82 132.06 699.49 132.59 700.55 133.78 700.69 134.41 702.51 134.1 702.29 134.47 702.56 134.89 700.45 135.58 700.13 136.02 700.56 136.25 702.3 135.21 703.45 134.95 704.51 135.19 705.91 134.48 707.26 135.01 708.71 135.05 708.8 135.7 710.21 136.55 710.39 135.59 710.87 135.73 711.43 133.66 714.16 134.36 714.94 134.83 719.86 135.78 720.22 136.4 720.68 136.33 720.55 136.01 721.46 135.93 721.7 135.54 723.18 135.97 722.67 133.21 724.87 132.91 727.12 130.51 727.15 130 728.25 130.3 728.78 129.72 729.31 130.1 731.18 129.68 734 131.9 737.48 133.02 737.52 130.52 737.07 129.94 737.36 129.35 737.22 128.9 736.48 128.66 735.83 129.19 735.18 128.58 735.27 129 734.93 128.96 734.23 127.65 734.62 127.48 734.46 126.66 733.59 126.77 734 127.33 733.12 127.09 733.59 127.2 733.1 126.64 733.21 125.86 733.58 126.11 733.64 125.91 733.23 125.73 733.57 124.46 732.95 123.09 733.85 120.61 734.4 117.05 733.89 116.88 733.91 116.5 733 116.52 733.65 113.36 732.78 113.21 731.93 113.53 730.1 112.76 730.21 112.26 729.42 111.89 730.14 110.25 730.01 109.77 728.25 109.01 726.67 108.92 726.99 111.09 726.8 112.03 726.47 111.96 722.47 109.34 722.04 105.49 720.03 104.67 718.56 105.24 718.44 105.65 717.52 105.29 717.53 104.79 716.96 105.04 717.03 105.35 716.6 105.3 716.13 106 716.81 108.04 716.15 108.02 715.75 108.98 716.08 110.08 714.95 110.4 715.32 111.2 714.55 111.14 Z" fill-rule="evenodd"/>
    <path class="geo-champ-location" id="Oberösterreich" d="M 540.99 69.24 541.07 69.81 542.6 69.86 543.26 70.17 544.15 71.43 544.49 72.61 545.13 72.64 545.89 73.44 545.77 74.12 546.45 74.12 546.44 73.15 547.08 72.47 547.93 72.27 548.44 72.27 548.84 73.14 549.53 73.56 550.49 72.79 550.98 73.1 551.45 72.92 552.29 73.46 553.08 73.4 553.73 74.45 555.52 74.72 556.28 75.23 557.4 76.48 556.95 77.35 559.21 77.76 560.26 77.64 561.57 78.31 562.26 78.3 563.89 79.59 563.95 80.72 564.86 80.96 564.61 82.06 562.89 81.58 561.93 82.07 561.85 82.86 561.44 83.09 561.71 83.99 560.67 84.78 559.34 85.08 560.47 86.84 560.14 88.26 560.31 88.77 562.72 89.55 564.24 92.14 564.15 92.68 565.06 92.86 565.87 93.63 566.98 93.71 567.41 94.26 567.18 94.52 567.35 94.92 568.08 95.16 567.91 96.09 566.32 97.57 565.75 97.56 564.99 98.27 564.73 99.01 565.48 99.15 566.88 98.04 569.72 99.12 569.75 100.58 569.2 101.3 568.56 103.96 568.71 106.38 568.34 106.66 567.78 109.11 568.5 109.27 569.59 108.8 570.93 109.28 571.61 109.09 572.21 109.69 572.29 111.71 572.02 112.98 572.39 113.38 572.74 115.85 572.59 118.43 573.01 119.4 570.83 120.94 570.78 122.25 571.27 122.81 570.55 123.38 569.97 123.26 570.09 123.54 569 125.28 569.29 125.84 570.24 125.91 570.4 126.68 570.77 126.9 570.35 127.6 571.4 128.03 571.34 128.38 569.78 127.51 568.26 124.17 567.68 123.57 565.1 123.23 562.99 124.05 562.34 123.37 561.64 123.34 560.61 124.09 559.16 124.49 559.02 126.99 558 129.13 556.69 130.03 553.97 130.45 552.55 131.14 547.47 132.55 547.11 132.99 545.68 132.08 544.6 132.02 543.62 133.57 543.59 134.53 542.18 135.4 540.27 134.75 539.01 133.88 539.04 133.3 537.42 132.88 536.23 131.94 535.26 130.5 533.81 129.56 531.24 125.6 528.43 124.15 525.6 123.19 524.36 123.22 521.13 125.71 520.2 129.48 520.49 130.75 520.13 131.82 520.65 133.04 520.05 135.19 519 137.02 520.01 138.32 520.1 139.32 519.09 141.13 521.31 141.99 521.91 142.75 519.19 144.66 518.22 146.1 518.31 146.83 519.25 146.56 519.41 146.84 519.1 147.35 517.8 147.78 518.34 148.88 517.66 150.23 518.47 150.69 517.99 152.7 518.32 153.11 518.07 153.47 519.51 154.21 519.27 154.87 519.97 155.55 519.86 155.91 521.35 158.17 521.88 158.39 522.02 160.37 523.15 161.04 526.04 161.56 526.9 162.23 528.38 162.76 529.01 163.81 529.95 163.97 531.69 164.96 532.38 166.17 534.06 167.74 535.56 168.01 536.09 168.67 538.17 168.56 538.57 168.98 540.09 169.2 540.62 169.88 541.05 169.8 542 170.62 544.1 171.23 544.62 170.27 546.58 169.74 546.74 171.38 548.25 172.42 548.74 173.65 549.98 175.02 549.9 175.59 551.31 177.7 549.91 180.05 547.55 180.76 547.04 181.32 546.29 181.5 544.95 182.83 545.08 183.52 546.16 183.84 546.54 184.28 546.17 184.6 546.34 185.66 545.04 187.05 545.19 188.28 547.36 190 547.33 190.77 545.31 192.2 546.58 195.77 547.91 196.99 549.01 197.43 548.2 198.56 546.43 197.55 545.71 196.75 544.81 196.77 544.37 196.17 543.82 195.99 541.16 199.83 539.23 200.32 538.73 201.51 538.78 202.29 537.43 201.91 537.07 202.25 537.01 201.88 535.63 201.57 534.88 201.96 534.22 202.01 534.18 201.74 533.36 202.68 532.99 202.67 532.45 203.55 530.81 203.87 528.96 203.38 527.25 204.33 526.72 204.34 525.61 205.88 526.34 207.16 525.26 209.3 523.74 209.89 522.35 209.32 521.64 209.62 520.8 210.43 520.49 211.32 519.93 211.29 518.21 212.2 518.01 213.3 516.91 213.96 515.52 213.92 515.24 213.36 512.8 214 512.31 214.67 512.58 216.3 512.22 216.6 511.11 216.91 510.07 217.7 508.98 217.73 506.29 219.4 505.46 221.08 504.88 220.94 504.02 221.29 502.99 220.8 502.19 221.03 500.8 220.06 498.97 220.71 498.01 220.36 497.46 219.38 495.81 218.04 494.59 215.86 495.56 214.53 494.09 214.61 492.76 214.27 489.83 216.56 488.91 216.26 488 216.79 486.49 216.74 485.51 217.25 485.15 217.86 482.84 218.29 481.9 218.92 481.27 218.94 481.02 219.5 479.65 219.55 478.05 220.09 477.56 219.77 476.59 219.91 476.97 218.67 476.11 218.48 477.01 212.05 473.25 208.53 472.28 206.98 471.34 206.66 469.43 207.57 466.11 205.68 464.39 205.69 462.8 206.41 461.42 205.49 461.05 204.48 460.27 204.51 459.32 203.82 458.44 203.9 458.22 203.18 457.38 203.6 456.54 203.03 456.75 203.22 455.57 205.02 454.45 204.35 449.53 205.36 447.92 204.46 447.9 205.05 445.52 207.44 445.01 209.27 443.41 209.63 443.7 211.33 441.56 212.03 440.55 212.79 440.77 213.89 440.34 215.81 439.86 216.62 439.87 217.26 439.4 217.76 439.25 219.23 439.84 222.96 439.02 224.57 439.31 226.01 440.16 225.68 441.26 225.98 441.29 226.64 443.62 226.36 445.79 230.12 445.91 231.34 444.92 231.49 444.78 231.83 445.4 234.22 446.31 235.14 445.11 238.04 442.99 239.8 442.02 241.34 441.79 242.38 442.36 244.17 441.31 244.31 440.57 243.9 436.59 244.1 432.68 243.55 430.53 242.2 429.63 242.37 429.09 242.13 428.4 242.53 427.98 242.26 423.99 239.91 423.19 239.75 422.58 239.16 421.25 239.28 420.68 238.92 420.39 237.91 419.19 236.57 417.93 236.33 416.48 233.37 416.67 232.91 416.39 231.71 417.37 230.2 416.69 227.83 418.01 226.45 419.51 225.68 419.61 222.78 421.38 220.05 420.81 218.94 420.87 218.46 420.31 217.83 419.5 218.4 417.88 218.2 417.47 217.65 417.27 216.47 417.95 216.09 417.86 215.7 418.97 213.77 418.93 212.21 420.14 210.9 420.7 211.19 422.33 210.07 422.64 208.13 423.76 206.96 424.23 205.21 421.12 204.51 419.57 204.66 419.32 204.49 419.52 204.08 417.14 203.89 412.23 201.31 413.16 198.29 412.96 197.84 413.29 196.27 414.48 195.34 415.26 194.07 415.96 194.15 416.63 194.67 417.49 194.69 420.57 196.24 422.58 195.61 422.93 194.65 422.16 193.19 421.69 192.96 421.96 192.37 420.03 192.39 419.62 193.38 418.77 193.59 418.37 193.16 417.86 193.6 417.27 193.08 417.01 191.64 416.67 191.85 415.47 191.31 414.22 191.49 413.8 191.28 411.88 191.94 411.07 191.76 410.78 192.04 409.2 192.19 408.66 191.98 407.91 192.7 407.34 192.82 407.13 192.43 405.82 191.97 404.87 191.08 403.34 190.4 403.03 189.78 399.3 189.95 399.03 188.63 396.95 188.16 396.94 187.49 396.61 187.26 396.79 185.36 396.38 185.41 396.37 185 397.15 184.43 396.71 183.33 397.57 183.11 397.33 182.04 396.48 180.66 395.52 180 395.59 179.04 395.06 178.56 394.92 177.78 395.74 177.42 396.07 176.88 395.88 175.38 396.2 174.23 395.69 173.26 396.19 173 396.12 172.41 396.5 172.08 396.04 169.7 395.76 169.55 395.75 168.75 396.19 168.19 395.98 167.97 396.98 167.09 398.82 166.54 399.4 167.5 401.17 167.77 402.19 168.3 401.97 169.07 402.21 169.71 402.83 169.54 403.19 170 404.09 170.31 404.18 169.78 404.6 169.62 404.36 167.84 405.02 167.48 404.82 167.08 405.67 166.26 405.29 165.4 405.57 165.17 405.47 164.55 403.71 164.38 402.81 163.52 401.22 162.92 400.72 162.22 400.29 162.46 400.25 162.14 398.93 162.06 398.76 161.67 398.16 161.68 397.86 160.58 398.49 160.41 398.48 159.68 397.71 159.31 397.54 159.84 396.76 159.48 396.06 160.19 396.21 161.43 395.35 161.31 393.56 162.32 392.95 162.1 392.6 162.55 392.08 162.2 391.17 162.85 390.29 162.78 389.97 163.56 389.3 163.84 388.85 163.67 388.85 164.11 387.9 164.39 387.44 164.69 387.5 164.95 384.59 165.05 384.11 164.67 382.05 165.58 382.21 165.08 381.84 164.66 382.12 164.5 381.59 164.34 381.41 163.27 381.98 163.03 382.55 162.18 382.41 161.74 380.5 162.74 379.49 162.62 379.77 161.52 378.64 161.88 377.41 161.23 376.63 161.57 376.17 161.04 376.19 160.37 375.95 160.54 375.68 160.09 375.61 160.54 374.96 160.12 374.67 160.29 374.49 159.84 374.96 159.2 374.47 158.46 374.23 158.66 373.44 158.45 372.86 158.85 373.19 157.98 373.45 157.96 372.67 156.94 372.98 156.31 371.46 156.55 371.93 155.53 371.79 154.71 371.27 154.48 369.9 155.86 369.06 155.84 368.43 155.16 367.88 155.39 367.94 155.73 367.36 156.27 365.57 156.5 364.53 157.23 363.9 157.17 362.88 155.79 361.98 155.38 361.71 155.57 361.58 155.14 360.7 155.18 360.08 155.47 358.68 157.22 357.57 157.43 356.7 159.82 356.22 160.03 355.65 162.22 354.06 161.35 352.33 161.33 351.99 159.5 351.14 158.06 343.05 150.5 341.81 148.83 341.27 147.17 340.93 143.92 341.93 142.31 341.93 141.11 342.94 140.81 344.38 141.69 344.81 141.64 345.97 139.27 346.16 138.05 347.43 137.31 349.14 137.08 349.82 136.32 349.98 135.2 351.15 134.94 351.69 133.3 352.54 132.14 353.02 130.21 353.55 129.63 358.41 128.87 361.38 128.83 362.53 128.41 366.9 124.11 368.3 121.8 369.34 120.93 372.82 119.75 375.41 117.98 380.22 117.82 385.59 115.29 393.57 115.47 401.08 110.9 404.98 106.31 409.32 103.19 410.17 101.56 410.62 98.34 412.49 93.87 412.26 92.68 411.25 90.98 411.17 90.11 414.35 81.71 413.12 79.79 412.99 78.99 413.51 78.27 413.51 77.66 412.36 76.05 412.23 74.65 413.49 73.6 414.89 75.14 416.11 74.81 416.01 73.84 416.47 73.48 417.08 73.96 417.48 73.77 417.95 73.12 417.8 72.7 419.05 72.26 419.35 71.45 418.8 70.96 419.55 69.45 420.39 69.45 421.45 69.97 423.09 71.89 425.78 73.98 427.01 74.23 427.87 72.84 428.89 72.71 431.46 75.02 434.42 75.85 435.58 78.18 437.69 78.98 439.9 80.73 442.02 81.39 442.37 81.12 442.65 79.49 444.13 78.85 444.24 77.51 443.7 76.58 444.84 75.47 444 75.28 444.75 73.55 445.39 73.25 446.4 75.09 448.47 72.24 449.56 71.97 450.2 70.28 449.97 69.59 450.17 69.41 449.6 69.02 449.57 68.28 450.33 67.88 450.19 67.1 450.49 66.54 450.96 66.37 451.07 65.61 451.74 65.66 452.07 64.98 451.82 63.92 452.2 63.52 452.12 62.46 451.62 61.87 451.86 61.33 450.84 60.17 451.4 56.95 451.07 55.27 450.71 54.92 450.74 53.64 451.1 53.17 452.79 53.62 453.18 52.28 451.45 52.52 451.07 52.13 450.78 52.23 450.49 51.98 450.51 51.03 449.66 51.13 448.81 50.05 449.52 49.7 450.38 47.89 451.27 47.44 451.44 43.94 452.99 42.64 453.33 42.08 453.33 41.26 453.79 41.11 454.24 41.54 455.15 41.3 457.08 42.01 460.59 44.95 463.58 48.69 465.07 49.06 465.3 50.03 466.8 50.22 467.6 50.74 468.2 50.57 470.17 50.9 470.85 51.48 470.74 51.87 471.22 52.47 470.87 52.94 471.15 53.01 471.39 52.57 471.72 52.8 471.52 53.48 472.46 53.9 472.81 54.47 472.39 54.79 473.31 55.35 473.38 55.77 474.32 55.68 475.98 56.24 476.06 57.76 475.4 59.48 474.08 59.21 472.39 59.55 472.26 60.65 471.01 61.57 471.8 61.99 472.3 62.95 473.04 63.25 472.89 63.65 474.3 63.2 474.88 63.44 474.64 64.73 474.16 64.99 474.29 65.7 475.26 66.21 475.54 67.04 477.06 66.58 476.86 68.46 477.4 67.68 479.95 67.66 479.81 68.84 481.89 69.3 483.35 67.95 484.56 68.56 485.85 68.21 486.23 68.76 486.71 68.71 486.79 69.23 488.22 68.93 488.65 68.49 489.96 68.66 491.36 69.35 493.44 69.78 494.73 70.94 495.51 70.86 496.29 70.31 497.9 70.33 498.67 71.42 500.4 72.36 502.44 73.06 503.36 72.91 503.67 74.48 504.3 74.83 505.27 74.35 505.81 73.25 506.32 73.15 506.24 72.16 506.77 71.26 507.6 71.06 507.89 71.99 508.17 72.03 509.04 72.06 509.9 71.64 510.45 70.59 509.84 69.88 509.66 68.43 510.24 68.17 510.65 68.51 512.33 68.37 513.63 69.04 514.31 68.91 514.71 67.52 515.4 67.18 516 65.19 515.88 64.13 516.34 63.37 516.76 63.3 515.46 60.48 516.43 60.27 517.04 60.47 518 60.01 518.13 59.66 518.41 60.35 518.94 60.56 518.84 61.04 519.73 61.84 520.54 62.03 520.78 63.65 521.63 64.43 522.89 64.02 524.01 64.8 526.08 64.79 526.82 66.14 527.7 66.51 527.89 65.72 529.07 65.28 529.6 64.38 530.54 64.3 531.85 62.61 532.61 62.59 533.37 63.54 534.3 66.22 534.75 66.42 536.27 65.33 537.12 66.2 538.17 69.65 540.99 69.24 Z"/>
    <path class="geo-champ-location" id="Salzburg" d="M 427.98 242.26 428.25 242.98 428.55 242.8 428.72 244.46 428 245.5 427.92 246.53 427.25 247.4 426.75 249.71 425.66 250.68 425.79 251.92 426.78 252.96 426.6 254.88 427.61 256.58 428.03 259.89 428.44 260.2 429.93 264.66 429.1 267.03 429.3 267.52 429.87 267.64 429.81 269.1 429.34 270.33 430.39 271.88 431.9 271.93 432.07 272.53 432.9 273.34 435.01 272.92 436.87 273.64 437.47 273.23 438.28 274.09 439.67 274.7 439.7 275.47 441.39 275.55 441.59 273.89 442.79 272.64 445.15 272.69 446.52 274.48 448.97 273.07 449.72 272.11 449.52 270.94 450.39 271.18 451.12 270.35 452.45 269.81 453.09 270.12 453.31 270.26 453.13 271.23 453.51 271.84 453.12 272.59 453.53 273.2 452.91 273.83 453.16 274.32 455.38 275.23 457.45 276.59 457.87 278.31 455.99 280.09 457.17 281.13 457.71 282.28 458.53 282.75 459.43 283.99 461.62 285.45 460.69 286.9 461.19 287.34 462.15 287.12 462.24 286.86 462.94 287.78 463.14 289.25 463.74 289 466.47 289.91 467.71 290.87 468.51 292.25 471.23 293.54 471.03 294.37 471.51 294.97 470.58 296.07 469.03 295.9 467.42 296.37 466.51 295.53 465.97 294.43 465.52 294.46 464.27 295.51 463.66 295.56 462.83 296.44 462.33 296.4 461.17 298 460.58 297.93 459.39 298.91 459.6 299.38 459.11 300.09 459.07 300.96 459.94 301.48 460.31 302.46 462.14 304.75 461.81 305.87 461.06 306.9 460.53 307.13 459.6 309.55 457.67 312.55 457.77 316.23 455.69 317.35 455.38 318.76 454.37 319.73 454.32 321.02 452.76 322.18 452.34 323.14 451.08 323.25 449.99 324.24 449.34 324.39 448.73 324.25 448.37 323.71 448.25 323.03 448.62 322.29 448.15 321.57 447.94 319.25 447.43 318.7 446.54 318.45 446.52 317.39 445.12 316.66 443.9 317.39 442.7 317.09 440.97 316.38 440.55 315.45 439.65 314.8 438.98 311.24 439.82 310.58 439.59 309.52 437.81 309.58 437.69 309.36 437.02 309.69 435.9 309.33 434.9 309.7 434.33 309.26 433.69 307.18 431.36 306.62 429.77 307.29 429.09 307.12 427.28 307.68 425.36 307.14 424.92 306.7 421.4 305.2 419.45 304.96 419.32 304.68 414.66 303.38 412.69 303.76 411.46 303.22 410.37 303.83 409.69 304.78 408.84 305.07 407.28 304.13 406.65 303.4 406.45 301.49 404.62 300.53 402.87 301.03 401.42 301.03 399.03 302.5 397.96 302.24 396.92 301.21 395.57 301.09 392.66 302.28 391.56 304.75 392.21 305.32 392.48 307.99 388.94 309 384.34 309.35 382.68 310.32 380.31 310.41 379.65 311.61 376.87 311.91 375.7 311.5 374.71 311.64 374.65 312.64 373.93 313.71 372.33 313.06 371.41 312.31 370.97 312.46 369.73 311.57 368.32 311.09 368.47 309.68 368.11 309.34 366.55 308.96 365.78 309.77 364.67 310.24 364.38 309.8 362.5 309.7 361.66 309.04 361.25 308.1 361.54 307.34 360.22 306.56 360.21 305.86 359.52 304.4 359.64 303.93 358.4 303.34 357.72 303.08 354.88 303.11 354.1 302.59 352.6 302.33 351.41 303.18 350.01 303.1 348.99 302.84 348.47 301.61 347.71 301.28 347.26 300.53 345.62 300.46 345.53 300.85 344.58 301.25 343.51 301.31 342.24 299.98 340.49 300.47 338.66 300.05 338.05 299.42 338.33 298.32 337.85 295.3 335.96 295.74 335.82 296.21 334.99 296.75 333.42 296.3 331.65 296.84 331 296.5 331.07 297.55 331.7 298.61 329.99 300.11 328.41 299.46 327.06 297.59 325.76 296.67 323.2 296.12 322.71 295 321.79 295.03 320.48 294.36 319.03 295.65 318.23 295.45 316.42 294.07 315.77 292.06 314.77 291.9 313.31 291.13 311.77 290.89 311.57 291.89 309.85 292.96 308.3 293.05 306.59 291.97 305.48 293 304.8 293.22 304.29 293.04 302.89 291.57 299.04 293.29 298.51 297.1 297.11 298.24 294.97 298.5 293.66 299.18 293.17 300.69 290.54 300.75 288.14 303.78 285.94 304.3 284.86 303.21 284.51 302.28 280.2 300.66 276.53 302.6 274.89 302.36 273.78 300.5 274.25 298.53 273.8 297.26 272.73 295.97 272.47 293.36 270.54 292.2 270.54 289.44 270.44 288.87 269.82 288.34 270.19 287.37 269.44 285.05 270.35 282.7 269.96 281.42 270.71 280.73 271.71 278.23 272.15 278.13 272.65 277.36 271.69 274.9 270.61 274.56 269.03 273.01 269.66 271.27 270.98 270.55 272.78 267.7 273.17 267.36 274.14 268.04 274.78 269.03 276.24 270.25 277.38 269.42 277.61 268.87 278.46 268.64 278.43 268.2 281.17 268.28 281.84 268.73 283.02 268.18 283.89 266.75 284.6 266.57 285.34 266.68 285.54 267.78 286.08 268.33 287.19 268.09 287.93 267.35 288.91 268.25 291.87 265.15 292.37 264.29 292.39 263.59 294.52 264.08 294.72 264.69 296.45 264.28 296.61 264.87 297.17 265.33 298.08 265.86 298.98 265.96 300.56 267 302.04 266.49 304.33 266.68 305.18 265.47 307.67 264.4 310.6 265.18 311.5 264.79 312.45 263.07 313.3 263.1 313.68 261.28 313.31 261.39 312.38 260.76 312.57 259.68 311.64 258.82 311.69 257.89 312.05 256.81 313.67 256.29 314.54 254.33 316.38 254.88 318.38 254.26 318.67 253.77 320.5 253.55 320.68 254.29 322.16 254.66 323.19 253.72 323.65 252.51 324.14 252.29 324.56 251.48 326.79 250.7 327.3 248.93 328.41 247.89 328.46 245.92 327.94 245.56 327.81 243.56 329.21 243 331.36 243.55 332.22 243.2 333.36 242.09 334.99 241.55 334.67 240.86 334.74 239.96 333.68 239.47 332.12 238.15 331.85 236.83 331.41 237.16 330.97 236.44 330.29 232.39 329.32 232.13 327.59 230.39 329.01 229.63 330.09 227.88 330.12 227.28 331.66 225.91 330.2 224.28 328.97 223.62 322.05 221.75 321.6 220 322.15 217.52 324.49 212.31 325.59 211.14 326.58 211.35 327.97 210.77 328.87 211.58 329.59 211.2 329.86 211.74 330.56 211.44 330.81 210.82 331.74 210.06 333.01 209.85 334.85 209.9 335.36 210.3 335.82 210.08 336.87 210.84 338.66 210.33 340.1 211.07 341.25 212.93 341.89 212.31 342.8 212.53 343.76 211.27 344.06 211.63 343.47 213.27 342.33 214.11 341.6 214.18 341.37 214.7 343.69 217.64 344.61 217.57 348.23 220.86 348.06 221.25 347.06 220.87 346.44 221.14 344.91 222.63 344.74 223.04 345.15 223.79 344.34 224.46 343.45 225.94 343.97 227.53 344.82 228.12 345.01 229.37 346.01 230.45 347.45 231.27 350.59 231.12 351 233.47 351.58 234.07 352.21 233.91 352.62 234.54 354.25 235.07 354.51 235.4 354.42 236.29 356.95 238.75 362.93 242.21 363.64 242.29 363.73 240.9 364.21 240.68 364.2 240.95 365 241.19 365.4 241.79 365.97 241.63 365.82 242.7 366.61 243.9 367.2 243.84 368.07 242.87 369.34 240.4 370.91 240.09 371.52 239.56 371.44 236.06 371.08 235.26 371.5 235.01 369.79 233.29 370.45 231.7 372.4 229.47 372.6 228.72 371.89 228.5 371.05 226.93 370.93 226.5 371.31 226.08 371.16 225.43 373.98 224.88 374.04 224.16 373.38 223.56 373.15 222.64 373.87 222.12 374.1 221.23 375.04 219.93 376.65 218.54 376.97 217.43 376.77 216.57 375.88 215.26 375.99 214.47 374.79 212.44 375.09 209.39 373.02 207.82 371.48 205.41 370.17 204.81 369.68 204.91 368.59 203.82 367.58 203.89 367.15 205.01 366.14 205.33 365.78 206.01 363.93 206.23 362.77 205.86 362.02 206.12 361.08 205.44 359.69 205.84 358.82 205.72 358.63 205.17 357.57 204.62 356.78 203.67 356.71 203.05 357.35 202.42 358.15 200.71 359.93 199.99 360.22 198.36 359.93 198.35 360.52 198.05 360.94 197.35 360.68 196.33 359.9 196.45 359.91 196.12 359.27 196.54 359.36 196.02 360.4 195.2 360.41 194.16 361.19 193.94 362.98 191.87 365.15 187.48 367.03 185.41 367.17 184.44 363.07 175.78 361.18 172.82 360.41 169.66 360.14 169.54 359.72 170.18 358.77 170.24 358.43 169.79 358.58 168.38 358.23 167.81 357.34 167.41 354.97 167.17 353.82 166.51 353.26 165.59 352.33 161.33 354.06 161.35 355.65 162.22 356.22 160.03 356.7 159.82 357.57 157.43 358.68 157.22 360.08 155.47 360.7 155.18 361.58 155.14 361.71 155.57 361.98 155.38 362.88 155.79 363.9 157.17 364.53 157.23 365.57 156.5 367.36 156.27 367.94 155.73 367.88 155.39 368.43 155.16 369.06 155.84 369.9 155.86 371.27 154.48 371.79 154.71 371.93 155.53 371.46 156.55 372.98 156.31 372.67 156.94 373.45 157.96 373.19 157.98 372.86 158.85 373.44 158.45 374.23 158.66 374.47 158.46 374.96 159.2 374.49 159.84 374.67 160.29 374.96 160.12 375.61 160.54 375.68 160.09 375.95 160.54 376.19 160.37 376.17 161.04 376.63 161.57 377.41 161.23 378.64 161.88 379.77 161.52 379.49 162.62 380.5 162.74 382.41 161.74 382.55 162.18 381.98 163.03 381.41 163.27 381.59 164.34 382.12 164.5 381.84 164.66 382.21 165.08 382.05 165.58 384.11 164.67 384.59 165.05 387.5 164.95 387.44 164.69 387.9 164.39 388.85 164.11 388.85 163.67 389.3 163.84 389.97 163.56 390.29 162.78 391.17 162.85 392.08 162.2 392.6 162.55 392.95 162.1 393.56 162.32 395.35 161.31 396.21 161.43 396.06 160.19 396.76 159.48 397.54 159.84 397.71 159.31 398.48 159.68 398.49 160.41 397.86 160.58 398.16 161.68 398.76 161.67 398.93 162.06 400.25 162.14 400.29 162.46 400.72 162.22 401.22 162.92 402.81 163.52 403.71 164.38 405.47 164.55 405.57 165.17 405.29 165.4 405.67 166.26 404.82 167.08 405.02 167.48 404.36 167.84 404.6 169.62 404.18 169.78 404.09 170.31 403.19 170 402.83 169.54 402.21 169.71 401.97 169.07 402.19 168.3 401.17 167.77 399.4 167.5 398.82 166.54 396.98 167.09 395.98 167.97 396.19 168.19 395.75 168.75 395.76 169.55 396.04 169.7 396.5 172.08 396.12 172.41 396.19 173 395.69 173.26 396.2 174.23 395.88 175.38 396.07 176.88 395.74 177.42 394.92 177.78 395.06 178.56 395.59 179.04 395.52 180 396.48 180.66 397.33 182.04 397.57 183.11 396.71 183.33 397.15 184.43 396.37 185 396.38 185.41 396.79 185.36 396.61 187.26 396.94 187.49 396.95 188.16 399.03 188.63 399.3 189.95 403.03 189.78 403.34 190.4 404.87 191.08 405.82 191.97 407.13 192.43 407.34 192.82 407.91 192.7 408.66 191.98 409.2 192.19 410.78 192.04 411.07 191.76 411.88 191.94 413.8 191.28 414.22 191.49 415.47 191.31 416.67 191.85 417.01 191.64 417.27 193.08 417.86 193.6 418.37 193.16 418.77 193.59 419.62 193.38 420.03 192.39 421.96 192.37 421.69 192.96 422.16 193.19 422.93 194.65 422.58 195.61 420.57 196.24 417.49 194.69 416.63 194.67 415.96 194.15 415.26 194.07 414.48 195.34 413.29 196.27 412.96 197.84 413.16 198.29 412.23 201.31 417.14 203.89 419.52 204.08 419.32 204.49 419.57 204.66 421.12 204.51 424.23 205.21 423.76 206.96 422.64 208.13 422.33 210.07 420.7 211.19 420.14 210.9 418.93 212.21 418.97 213.77 417.86 215.7 417.95 216.09 417.27 216.47 417.47 217.65 417.88 218.2 419.5 218.4 420.31 217.83 420.87 218.46 420.81 218.94 421.38 220.05 419.61 222.78 419.51 225.68 418.01 226.45 416.69 227.83 417.37 230.2 416.39 231.71 416.67 232.91 416.48 233.37 417.93 236.33 419.19 236.57 420.39 237.91 420.68 238.92 421.25 239.28 422.58 239.16 423.19 239.75 423.99 239.91 427.98 242.26 Z"/>
    <path class="geo-champ-location" id="Steiermark" d="M 699.64 244.98 697.36 245.5 694.93 246.64 692.28 246.43 692.2 247.62 692.73 248.46 693.02 248.4 692.77 248.84 692.97 249.48 692.54 249.41 691.54 250.27 690.37 249.2 691.11 248.65 690.95 247.94 691.85 247.72 691.69 247.38 690.93 247.67 690.52 247.35 689.94 247.99 689.24 248.18 688.56 249.76 688.52 251.18 685 252.18 685.45 253.27 683.49 254.12 684.13 254.59 684.12 254.91 684.48 254.68 684.71 255.22 684.96 255.18 684.77 255.5 685.21 256.01 685.55 255.71 685.44 256.37 685.82 256.53 685.49 256.89 685.96 256.94 685.61 257.15 685.92 257.48 685.72 257.6 686.58 257.69 686.48 258.32 687.44 259.2 687.09 259.55 687.32 259.62 687.09 260.16 687.68 260.77 687.48 261.31 687.81 261.38 687.38 261.47 687.5 261.77 687.75 261.58 687.86 261.92 688.07 261.66 688.43 261.97 688.32 263.3 688.82 263.64 688.56 264.09 688.83 264.69 688.48 265.01 689.1 265.15 688.99 265.5 689.31 265.73 688.99 266.42 689.35 266.49 689.25 266.94 690.28 268 690.44 268.49 690.22 268.56 690.57 268.6 690.53 269.41 691.14 270.19 690.68 270.49 691.31 271.44 691.05 271.75 691.54 271.89 691.26 272.32 691.61 272.21 691.48 272.64 691.86 273.15 691.37 274.4 691.72 274.53 691.62 275.15 691.18 275.14 691 275.74 691.33 275.6 691.62 275.94 691.41 276.09 691.69 276.28 691.67 276.97 692.02 276.93 691.72 277.22 691.75 278.01 692.33 278.28 692.18 278.74 692.63 279.12 692.3 279.24 692.57 279.64 692.38 279.81 692.95 280.17 692.63 280.3 693.07 280.37 693.06 281 693.5 281.35 693.27 281.55 693.77 281.79 693.65 282.28 694 282.42 694.11 283.24 694.36 283.29 694.05 283.34 694.15 284.13 694.45 284.23 694.22 284.32 694.61 284.53 694.48 284.84 694.99 285.6 694.73 286.35 694.96 286.43 695.18 288.22 695.42 288.29 694.97 288.75 695.22 288.81 695.29 289.93 694.69 290.95 694.46 291.94 694.69 292.24 694.29 292.54 694.35 292.93 694.04 293.25 693.29 293.15 693.39 293.7 693.06 293.78 692.91 295.45 693.3 296.15 692.52 297.12 692.95 297.97 692.67 298.25 692.9 298.98 692.6 299.19 693.3 299.94 693.56 300.99 693.99 301.26 693.79 301.52 694.59 301.2 695.35 303.03 695.97 303 696.41 303.62 696.43 304.07 696.11 304.18 696.51 304.37 695.98 304.55 696.19 304.89 695.76 305.11 695.83 305.61 696.26 305.51 696.52 305.77 696.37 306.02 695.9 305.79 695.78 305.99 696.43 306.09 696.59 306.47 696.85 306.34 696.83 306.84 696.41 306.78 696.99 307.09 696.97 307.64 697.79 308.1 697.63 308.67 698.62 309.07 698.12 309.4 698.57 309.78 698.45 310.09 698.86 310.01 699.02 310.81 699.59 310.34 699.36 310.63 699.72 310.77 699.7 311.58 700.36 311.53 700.12 311.83 698.16 311.29 696.78 311.99 696.51 313.64 695.96 313.68 695.63 314.77 695.32 314.93 695.6 315.84 695.07 316.61 694.71 316.66 694.17 317.82 694.28 320.79 691.63 320.72 690.92 322.4 690.8 324.23 689.78 324.94 689.29 324.72 688.23 325.87 688.2 327.45 687.73 327.48 685.87 328.9 685.46 330.48 685.49 332.95 684.77 334.37 685.31 334.92 684.64 336.11 684.79 336.29 684.32 336.48 683.21 337.78 683.53 338.96 684.66 340.49 684.08 341.5 684.31 342.98 683.83 345.65 684.04 348.52 683.54 349.42 684.56 352.62 685.7 353.85 685.52 354.43 685.73 354.76 686.88 354.76 687.66 355.67 688.55 355.52 688.31 356.45 688.5 357.19 689.36 358.05 690.04 359.45 689.73 364.07 686.78 362.82 685.37 360.44 683.78 359.87 679.85 359.3 675.99 356.19 671.55 354.63 668.26 354.53 664.15 355.79 660.8 358.39 659.24 358.61 657.69 358.34 655.82 359.04 653.06 358.66 650.95 357.49 648.15 357.73 648.62 358.69 648.61 359.83 647.51 360.16 647.28 359.82 647.02 359.98 646.36 361.06 646.57 361.58 646.14 361.77 645.07 361.84 644.34 361.3 643.52 361.68 643.46 360.83 643.83 360.66 642.39 360.34 641.85 360.96 641.87 361.4 640.55 361.45 640.61 361.8 639.55 361.92 639.5 362.7 639.02 362.74 638.64 363.38 637.77 363.17 637.38 363.7 637 363.7 638.13 366.44 637.92 367.02 637.42 366.88 637.12 367.3 637.33 367.86 637.92 368.17 637.79 368.45 637.39 368.69 637.04 369.8 636.84 369.2 636.46 369.2 634.71 371.16 634.19 370.9 633.81 371.15 633.83 371.96 633.06 372.07 632.83 372.4 632.53 371.75 631.3 371.39 629.9 372.77 628.54 372.31 628.67 371.1 627.73 370.03 627.88 368.65 627.1 368.15 626.01 368.57 625.01 367.54 624.1 367.48 624.25 366.63 623.25 366.21 621.16 366.83 619.2 366.89 618.82 367.23 617.05 367.01 616.83 366.47 615.83 367.14 615.13 366.79 614.09 366.82 613.2 367.67 612.32 367.03 611.22 366.89 610.47 367.02 608.73 368.44 607.15 368.31 604.33 369.2 603.07 368.6 602.42 368.81 600.2 368.32 598.55 366.74 596.94 367.1 596.66 366.61 595.74 366.89 594.6 366.27 594.06 366.81 593.45 366.76 592.85 367.83 592.08 366.92 591.78 367.27 591.35 366.94 591.5 366.78 590.57 366.38 589.67 367.37 588.51 367.62 587.94 368.69 587.12 368 586.08 367.66 585.88 366.62 584.88 366.33 584.34 365.52 584.48 364.9 582.78 365.6 581.46 364.6 581.73 364.03 582.3 363.73 582.64 359.41 583.65 358.02 583.44 356.67 582.7 355.94 583.08 355.28 583.62 355.19 582.36 353.73 582.38 352.6 581.68 351.14 582 349.59 581.58 349.13 576.18 347.32 576.62 344.29 577.31 343.48 577.55 341.46 578.27 340.52 579.96 339.74 580.59 338.01 579.43 336.14 579.56 333.91 579.25 332.57 579.96 332.36 580.23 331.93 580.65 329.59 581.21 328.34 581.13 327.76 580.4 326.89 580.08 325.91 578.98 324.83 577.89 324.63 578.08 324.41 577.37 323.47 577.56 323.12 577.03 322.53 576.62 321.22 575.98 320.54 575.89 319.63 575.19 318.86 574.51 316.77 573.65 315.82 572.64 315.14 571.51 315.17 567.82 314.11 566.09 312.8 564.49 310.73 562.68 310.34 560.97 308.35 561.28 306.79 559.9 306.63 558.27 307.98 556.2 308.73 555.48 308.38 554.88 308.62 553.73 308.29 553.23 308.47 549.56 310.36 549 311.05 549.25 312.03 548.56 311.33 547.86 311.72 547.41 311.41 546.59 311.47 546.03 312.05 545.1 311.66 542.45 311.79 540.9 312.47 538.53 312.59 537.25 315.03 534.86 314.5 534.2 312.98 533.35 312.84 531.17 312.74 530.37 313.03 529.83 312.78 526.69 313.54 526.74 312.8 525.33 311.96 525.59 310.53 522.66 311.94 522.04 313.76 521.96 313.27 521.07 313.4 520.6 312.79 520.79 314.69 520.47 315.61 519.63 315.84 519.48 315.25 518.86 315.63 518.99 315.45 518.11 315.47 517.65 314.94 517.73 315.48 515.09 316.67 514.06 318.09 513.67 318.14 513.57 317.86 513 318.18 512.53 316.62 512 315.98 512.29 314.51 512 313.87 512.6 312.92 511.4 312.16 510.78 311.29 508.68 311.11 507.87 311.42 506.83 310.55 505.8 310.85 504.13 310.73 502.74 311.23 502.27 310.79 501.48 311.19 500.7 310.69 500.09 311.23 499.13 310.66 498.53 309.89 497.03 310.94 496.94 311.28 495.8 309.8 495.54 307.48 494.81 306.21 494.91 305.75 493.59 304.26 493.49 303.36 491.46 305.21 490.45 305.71 490.18 306.4 489.21 307.25 487.65 306.3 486.79 306.02 486.53 306.23 486.12 305.75 485.61 305.98 485.09 306.77 485.34 308.38 485.1 308.87 484.62 309.23 483.81 309.09 482.82 309.53 482.8 310.02 482.2 310.19 481.92 310.85 481.32 311 480.02 312.47 479.73 313.5 478.9 314.12 477.28 314.87 475.2 314.43 473.42 314.92 473.85 317.39 472.73 318.85 473.11 319.41 472.78 320.09 471.74 320.35 471.35 320.79 470.13 320.71 468.48 321.24 467.37 322.34 466.83 322.05 466.99 324.51 465.99 324.66 465.22 324.01 463.56 324.92 462.8 325.97 461.56 325.88 461.27 326.87 460.35 327.21 459.57 328.48 458.46 328.38 457.99 328.02 456.94 328.45 456.11 329.7 455.52 328.99 455.04 329.19 454.69 328.82 454.05 329.1 452.62 328.3 452.08 327.22 451.02 326.58 450.35 325.68 449.36 325.36 449.34 324.39 449.99 324.24 451.08 323.25 452.34 323.14 452.76 322.18 454.32 321.02 454.37 319.73 455.38 318.76 455.69 317.35 457.77 316.23 457.67 312.55 459.6 309.55 460.53 307.13 461.06 306.9 461.81 305.87 462.14 304.75 460.31 302.46 459.94 301.48 459.07 300.96 459.11 300.09 459.6 299.38 459.39 298.91 460.58 297.93 461.17 298 462.33 296.4 462.83 296.44 463.66 295.56 464.27 295.51 465.52 294.46 465.97 294.43 466.51 295.53 467.42 296.37 469.03 295.9 470.58 296.07 471.51 294.97 471.03 294.37 471.23 293.54 468.51 292.25 467.71 290.87 466.47 289.91 463.74 289 463.14 289.25 462.94 287.78 462.24 286.86 462.15 287.12 461.19 287.34 460.69 286.9 461.62 285.45 459.43 283.99 458.53 282.75 457.71 282.28 457.17 281.13 455.99 280.09 457.87 278.31 457.45 276.59 455.38 275.23 453.16 274.32 452.91 273.83 453.53 273.2 453.12 272.59 453.51 271.84 453.13 271.23 453.31 270.26 453.09 270.12 452.45 269.81 451.12 270.35 450.39 271.18 449.52 270.94 449.72 272.11 448.97 273.07 446.52 274.48 445.15 272.69 442.79 272.64 441.59 273.89 441.39 275.55 439.7 275.47 439.67 274.7 438.28 274.09 437.47 273.23 436.87 273.64 435.01 272.92 432.9 273.34 432.07 272.53 431.9 271.93 430.39 271.88 429.34 270.33 429.81 269.1 429.87 267.64 429.3 267.52 429.1 267.03 429.93 264.66 428.44 260.2 428.03 259.89 427.61 256.58 426.6 254.88 426.78 252.96 425.79 251.92 425.66 250.68 426.75 249.71 427.25 247.4 427.92 246.53 428 245.5 428.72 244.46 428.55 242.8 428.25 242.98 427.98 242.26 428.4 242.53 429.09 242.13 429.63 242.37 430.53 242.2 432.68 243.55 436.59 244.1 440.57 243.9 441.31 244.31 442.36 244.17 441.79 242.38 442.02 241.34 442.99 239.8 445.11 238.04 446.31 235.14 445.4 234.22 444.78 231.83 444.92 231.49 445.91 231.34 445.79 230.12 443.62 226.36 441.29 226.64 441.26 225.98 440.16 225.68 439.31 226.01 439.02 224.57 439.84 222.96 439.25 219.23 439.4 217.76 439.87 217.26 439.86 216.62 440.34 215.81 440.77 213.89 440.55 212.79 441.56 212.03 443.7 211.33 443.41 209.63 445.01 209.27 445.52 207.44 447.9 205.05 447.92 204.46 449.53 205.36 454.45 204.35 455.57 205.02 456.75 203.22 456.54 203.03 457.38 203.6 458.22 203.18 458.44 203.9 459.32 203.82 460.27 204.51 461.05 204.48 461.42 205.49 462.8 206.41 464.39 205.69 466.11 205.68 469.43 207.57 471.34 206.66 472.28 206.98 473.25 208.53 477.01 212.05 476.11 218.48 476.97 218.67 476.59 219.91 477.56 219.77 478.05 220.09 479.65 219.55 481.02 219.5 481.27 218.94 481.9 218.92 482.84 218.29 485.15 217.86 485.51 217.25 486.49 216.74 488 216.79 488.91 216.26 489.83 216.56 492.76 214.27 494.09 214.61 495.56 214.53 494.59 215.86 495.81 218.04 497.46 219.38 498.01 220.36 498.97 220.71 500.8 220.06 502.19 221.03 502.99 220.8 504.02 221.29 504.88 220.94 505.46 221.08 506.29 219.4 508.98 217.73 510.07 217.7 511.11 216.91 512.22 216.6 512.58 216.3 512.31 214.67 512.8 214 515.24 213.36 515.52 213.92 516.91 213.96 518.01 213.3 518.21 212.2 519.93 211.29 520.49 211.32 520.8 210.43 521.64 209.62 522.35 209.32 523.74 209.89 525.26 209.3 526.34 207.16 525.61 205.88 526.72 204.34 527.25 204.33 528.96 203.38 530.81 203.87 532.45 203.55 532.99 202.67 533.36 202.68 534.18 201.74 534.22 202.01 534.88 201.96 535.63 201.57 537.01 201.88 537.07 202.25 537.43 201.91 538.78 202.29 538.73 201.51 539.23 200.32 541.16 199.83 543.82 195.99 544.37 196.17 544.81 196.77 545.71 196.75 546.43 197.55 548.2 198.56 547.96 199.15 548.41 199.68 549.47 200.46 550.27 200.64 551.25 201.97 554.56 200.09 555.64 200.22 556.55 199.1 558.07 199.15 557.88 199.89 558.84 200.65 560.97 199.46 562.68 201.75 562.73 203.35 566.53 204.36 566.76 204.08 568.08 204.07 568.44 203.03 569.34 202.3 570.54 200.58 572.16 199.87 572.68 198.87 574.11 199.38 575.24 199.16 577.74 198.1 578.55 197.35 579.11 197.32 581.63 199.18 583.78 198.75 584.85 198.94 589.1 197.96 589.31 197.62 589.07 197.06 590.01 195.73 590.59 196.35 592.06 196.14 593.08 196.85 594.61 196.35 596.3 196.82 597.41 195.29 597.13 194.67 597.36 194.39 596.54 194.17 596.37 193.47 596.95 193.04 597.09 191.47 597.8 191.03 598.01 190.18 599.77 189.71 602.24 190.69 602.73 190.45 605.32 190.9 605.68 190.41 605.71 189.51 606.11 189.29 605.81 187.9 606.38 186.16 607.38 186.24 607.73 185.82 608.26 185.75 609 186.05 609.97 185.03 610.46 184.93 611.19 185.26 612.64 185.19 612.85 185.51 614.33 185.22 616 186.52 616.08 187.11 617.1 186.78 617.63 187.08 617.37 189.01 618.2 191.4 619.44 191.33 620.56 190.29 621.12 190.39 622.37 193.16 622.88 193.12 623.53 193.59 625.98 193.38 626.74 193.73 627.82 193.6 628.54 193.85 629.38 194.66 629.16 195.65 628.57 196.04 629.17 197.04 629.89 196.83 630.7 197.09 633.05 196.46 633.34 196.91 634.11 197.06 634.98 196.42 636.65 196.49 638.87 195.87 639.77 196.69 640.17 198.13 641.12 199.28 642.04 201.48 642.65 201.14 643.7 201.11 645.64 202.21 646.58 203.89 647.88 202.88 648.42 201.66 650.58 201.83 650.74 202.69 650.32 204.15 650.83 204.95 650.73 206.02 651.96 209.12 651.67 211.88 652.66 211.98 653.69 212.66 653.8 213.02 653.39 213.87 653.76 214.07 655.7 213.52 656.41 212.72 657.47 212.29 657.67 212.83 658.43 212.68 660.1 213.37 661.82 212.87 662.67 213.64 663.07 215.25 664.04 215.96 665.57 215.41 666.19 216.5 665.55 218.33 664.77 219.16 664.9 220.11 664.46 220.79 664.81 223.65 666.62 223.9 667.08 223.01 667.65 222.7 669.08 222.98 670.84 224.23 670.72 226.78 671.8 228.38 672.01 229.2 674.38 229.76 676.52 231.12 678.37 230.57 681.28 231.22 681.84 230.89 682.78 230.92 684.01 231.68 684.61 232.83 685.51 233.34 686.12 234.77 687.32 235.78 688.1 235.47 687.88 235.05 688.02 233.08 689.01 232.87 689.46 233.43 689.69 232.39 690.55 232.14 691.01 231.52 690.94 230.54 691.31 229.52 691.65 229.72 692.53 229.34 692.81 230.65 693.28 230.82 692.74 231.61 692.94 232.03 693.86 231.45 693.56 232.92 693.03 233.53 693.42 234.84 693.97 235.04 693.71 235.81 693.93 236.59 693.41 237.16 694.27 237.17 694.19 237.64 694.66 238.04 695.31 237.84 695.87 239.07 695.37 239.42 695.28 240.33 696.23 241.28 696.29 242.13 698.32 243.96 698.43 244.39 699.12 244.42 699.64 244.98 Z"/>
    <path class="geo-champ-location" id="Tirol" d="M 99.87 224.16 100.49 224.67 101.72 224.95 103.39 226.67 107.1 227.62 110.71 227.41 111.22 227.93 111.97 228.06 113.17 225.85 113.05 224.66 114.07 224.05 114.98 222.54 116.03 223.19 117.17 223.07 117.88 224 118.77 224.33 123.15 224.49 123.29 224.93 124.66 224.58 124.96 226.76 126.47 226.97 127.42 227.87 129.79 227.88 131.61 228.57 132.15 229.56 132.06 230.87 133.49 231.83 135.41 230.76 137.21 231 137.07 230.32 137.29 230.01 139.24 229.77 139.95 230.25 141.57 228.87 142.46 229.01 145.43 228.58 145.65 229.68 146.81 231.61 148.02 231.45 148.3 231.77 148.22 232.34 145.34 233.19 143.33 234.24 143.04 236.89 144.22 237.55 147.24 236.66 150.07 237.43 150.2 237.62 149.16 238.64 149.22 239.1 152.14 242.08 154.7 245.5 154.77 246.89 154.32 247.29 153.39 247.43 153.06 248.26 153.19 250.09 154.12 250.6 156.78 251.12 158.71 250.72 159.25 251.31 160.28 250.84 161.36 251.29 162.74 250.92 166.8 251.39 168.33 251.25 169.29 250.63 169.19 249.59 169.79 248.7 171.16 248.44 172.7 247.42 174.15 247.23 175.31 246.66 177.19 246.54 178.02 245.57 179.66 246.14 182.68 245.94 183.04 246.67 181.62 247.89 180.55 250.01 179.81 250.66 179.63 251.27 180.25 251.64 181.17 251.2 183.9 251.08 184.63 251.38 185.83 250.93 186.79 249.93 187.17 248.11 186.87 247.63 186.97 246.87 187.89 246.32 189.42 246.34 190.19 245.3 191.07 245.26 191.26 244.26 192.06 243.46 193.25 243.86 194.03 243.69 194.75 244.32 195.45 244.24 196.08 243.68 197.28 244.12 198.71 243.92 199.27 244.27 200.11 244.11 200.71 244.5 199.8 242.78 199.56 241.04 197.64 241 196.89 240.1 197.66 238.61 198.1 238.61 199.45 237.35 200.45 235.56 203.19 233.2 203.9 234.88 204.6 234.62 207.92 234.7 208.1 235 209.11 234.98 209.8 235.41 210.52 235.17 211.18 234.47 212.75 234.83 214.66 234.18 216.83 234.05 217.36 233.18 218.51 232.4 218.34 229.3 218.77 228.33 218.49 227.86 219.9 226.07 220.56 223.83 221.31 224.03 222.02 223.34 223.46 223.96 223.22 223.03 223.79 221.81 224.32 222 224.52 222.64 225.14 222.49 226.28 223.53 227.6 223.3 228.47 223.57 230.47 222.82 235.19 223.11 238.94 222.65 239.82 223.21 242.69 223.77 243.79 223.62 243.98 224.15 245.53 224.33 245.86 224.16 246.72 221.07 247.62 221.32 250.94 220.11 251.68 220.25 252.9 219.41 254.95 219.62 258.61 218.98 259.44 219.66 259.94 218.75 261.89 218.38 262.85 217.83 263.29 218.14 264.22 220.03 264.92 220.02 265.85 219.05 267.29 219.5 268.3 218.9 270.11 219.75 270.54 220.35 273.98 220.14 275.41 221.06 276.54 221.12 279.05 219.91 280.67 219.78 280.91 220.41 280.55 221.87 281.36 221.29 283.16 221.05 283.73 219.97 282.83 215.72 281.39 212.75 281.12 211.47 279.73 209.56 279.13 206.32 281.33 206.46 282.7 205.24 283.46 205.41 283.71 204.94 284.33 204.84 285.89 203.79 288.34 200.2 289.11 199.98 289.92 201.62 288.38 204.67 287.99 204.93 287.36 207.49 288.79 209.82 289.62 210.01 291.13 208.55 291.89 208.21 297.47 207.22 297.16 207.88 297.49 208.2 298.87 208 299.45 208.26 300.13 209.29 304.09 208.03 306.99 207.44 307.36 207.74 308.14 207.63 308.44 208.15 307.99 210.56 308.17 210.93 308.57 210.94 308.64 211.4 309.41 211.87 310.68 214.7 313.4 216.72 314.2 218.55 315.57 218.54 318.11 216.83 322.15 217.52 321.6 220 322.05 221.75 328.97 223.62 330.2 224.28 331.66 225.91 330.12 227.28 330.09 227.88 329.01 229.63 327.59 230.39 329.32 232.13 330.29 232.39 330.97 236.44 331.41 237.16 331.85 236.83 332.12 238.15 333.68 239.47 334.74 239.96 334.67 240.86 334.99 241.55 333.36 242.09 332.22 243.2 331.36 243.55 329.21 243 327.81 243.56 327.94 245.56 328.46 245.92 328.41 247.89 327.3 248.93 326.79 250.7 324.56 251.48 324.14 252.29 323.65 252.51 323.19 253.72 322.16 254.66 320.68 254.29 320.5 253.55 318.67 253.77 318.38 254.26 316.38 254.88 314.54 254.33 313.67 256.29 312.05 256.81 311.69 257.89 311.64 258.82 312.57 259.68 312.38 260.76 313.31 261.39 313.68 261.28 313.3 263.1 312.45 263.07 311.5 264.79 310.6 265.18 307.67 264.4 305.18 265.47 304.33 266.68 302.04 266.49 300.56 267 298.98 265.96 298.08 265.86 297.17 265.33 296.61 264.87 296.45 264.28 294.72 264.69 294.52 264.08 292.39 263.59 292.37 264.29 291.87 265.15 288.91 268.25 287.93 267.35 287.19 268.09 286.08 268.33 285.54 267.78 285.34 266.68 284.6 266.57 283.89 266.75 283.02 268.18 281.84 268.73 281.17 268.28 278.43 268.2 278.46 268.64 277.61 268.87 277.38 269.42 276.24 270.25 274.78 269.03 274.14 268.04 273.17 267.36 272.78 267.7 270.98 270.55 269.66 271.27 269.03 273.01 270.61 274.56 271.69 274.9 272.65 277.36 272.15 278.13 271.71 278.23 270.71 280.73 269.96 281.42 270.35 282.7 269.44 285.05 270.19 287.37 269.82 288.34 270.44 288.87 270.54 289.44 270.54 292.2 272.47 293.36 272.73 295.97 273.8 297.26 274.25 298.53 273.78 300.5 274.89 302.36 274.64 302.86 274.29 302.78 273.07 303.48 271.4 302.68 270.42 302.86 269.98 303.6 269.12 304.08 268.56 305.63 266.75 305.66 266.39 305.25 265.12 305.18 264.14 305.74 263.71 306.83 262.67 307.34 259.91 306.93 258.96 307.31 258.25 306.83 257.62 307.25 257.07 308.28 255.72 307.88 254.8 309.34 253.31 308.67 251.57 309.32 251.31 310.02 249.26 311.25 248.98 311.88 247.65 311.88 246.98 312.82 246.35 312.57 245.51 313.12 244.66 314.31 243.89 314.06 242.93 315.38 242.01 315.34 240.71 315.82 239.5 315.51 237.97 315.73 237.17 315.35 237.04 315.91 236.11 316.58 235.39 318.25 233.96 318.51 233.41 318.93 231.37 318.35 231.02 317.15 230.4 316.55 229.72 315.08 228.52 315.16 227.31 314.68 224.76 315.21 224.24 314.64 221.65 313.38 220.87 311.78 219.02 312.1 217.89 312.92 216.85 312.91 215.96 313.41 215.96 314.18 213.83 315.15 212.99 315.14 211.38 316.09 210.87 315.65 210.78 314.9 208.99 313.53 208.71 312.77 207.47 312.4 207.61 312.04 205.15 311.78 204.19 313.06 204.15 314.2 203.14 314.76 202.31 314.6 200.94 317.23 199.43 318.12 198.75 318.1 198.49 318.52 197.69 318.41 197.23 318.74 195.89 317.99 194.78 317.78 194.13 316.39 193.24 315.84 192.36 314.63 191.51 314.8 190.99 314.57 190.45 315.41 190.04 315.45 189.71 314.88 189.18 314.86 188.3 314.24 186.95 315.49 186.31 315.63 184.86 315.15 183.68 315.94 182.24 315.88 181.48 316.88 180.71 316.86 179.88 317.54 177.65 317.55 176.18 318.55 175.79 317.68 174.97 317.28 174.07 317.41 172.94 318.44 171.68 317.91 171.79 319.54 171.43 320.36 171.98 321.14 171.54 321.91 168.8 323.76 166.29 323.09 165.69 323.91 165.62 325.46 164.38 325.74 164.19 326.05 164.06 326.73 164.51 328.13 164.21 329.23 164.69 329.51 163.28 331.16 162.1 334.09 161.51 334.31 161.32 335.05 161.64 336.59 161.14 337.35 161.9 338.01 162.45 339.88 161.41 340.2 159.97 341.29 159.59 341.99 158.91 341.9 157.69 342.42 158.19 343.07 157.3 344.13 156.97 345.56 156.04 347.47 156.03 348.26 155.7 348.49 154.84 347.43 152.61 348.15 150.99 347.79 150.69 347.24 147.4 346.7 145.74 347.04 145.22 346.64 144.37 346.83 143.33 347.7 142.29 347.37 141.67 348.24 140.85 348.44 139.36 347.93 139.26 346.91 137.74 346.61 137.02 345.91 136.62 345.9 136.47 345.36 135.55 345.54 134.81 346.65 133.62 346.3 131.77 343.73 130.77 342.93 129.92 343.74 127.66 344.55 126.95 344.17 124.78 343.96 124.38 342.48 126.3 341.74 127.15 339.9 127.94 339.53 128.49 338.64 127.89 338 127.66 337.14 125.71 336.85 125.2 336.29 124.16 336.26 123.53 335.44 123.64 334.83 122.25 334.75 121.94 334.24 121.27 333.96 121.21 333.06 121.6 332.35 120.96 331.55 118.98 331.02 118.55 330.25 118.04 330.42 117.07 331.54 113.98 331.79 112.37 332.64 110.83 332.8 110.22 333.86 108.95 334.14 108.07 335.02 105.48 335.71 106.62 334.26 106.22 333.76 102.86 334.35 100.01 333.74 100.18 333.21 99.67 333.53 99.72 333.18 99.3 332.75 98.68 332.67 98.87 332.47 98.45 332.08 97.46 332.68 97.33 331.56 97.74 329.9 97.57 328.63 97.1 328.12 98.26 326.61 98.72 324.1 99.56 323.38 99.85 321.71 99.56 320.9 100.02 319.94 98.65 319.38 97.9 318.41 96.53 317.47 95.85 317.53 94.63 316.93 93.73 316.87 93.21 316.41 93.02 316.11 93.59 313.82 92.14 312.69 91.1 311.38 90.76 310.43 89.79 309.83 89.16 310 87.91 311.29 86.11 310.96 85.2 311.35 84.98 312.35 84.46 312.61 84.52 313.06 83.24 315.2 83.01 316.78 81.03 317.29 80.84 317.74 80.63 318.84 81.74 320.3 81.59 321.19 79.97 321.21 79.52 321.92 78.92 321.39 76.4 320.42 73.63 319.92 73.7 321.87 73.15 322.33 72.67 324.49 71.83 325.34 72 326.23 72.73 327.12 72.21 329.46 72.39 329.96 70.97 329.75 69.32 330.09 68.25 329.77 66.94 331.41 65.85 331.65 65.54 332.1 64.87 332.02 64.12 332.48 64 332.09 62.98 331.94 62.44 329.33 62.81 328.96 62.76 328.27 61.63 327.82 60.27 326.51 59.43 324.98 59.56 324.11 59.3 323.5 59.53 322.9 58.6 321.55 58.45 320.42 58.52 319.93 59.35 319.67 60.02 318.53 60.93 318.41 61.63 317.56 62.57 315.87 62.64 314.12 62.93 313.13 63.57 312.59 63.44 312.12 63.8 311.46 64.38 311.7 65.42 311.41 64.87 310.16 65.47 309.12 64.96 308.1 62.72 306.98 61.77 305.37 64.06 303.69 65.28 302.21 65.51 301.38 64.95 299.35 64.34 299.48 63.24 298.96 63.16 296.23 65.48 292.76 66.07 291.19 66.56 291.39 67.63 290.4 69.08 290.57 69.11 289.11 71.57 288.79 71.7 288.55 70.99 287.95 71 287.1 72.2 286.95 73.01 285.98 73.03 285.57 71.58 284.53 72.03 282.67 71.45 282.2 71.33 281.42 70.87 281 70.6 279.44 70.64 279.04 72.37 277.57 72.54 276.05 72.31 275.14 72.5 274.47 72.04 274.16 72.27 273.76 71.99 273.2 71.25 273.03 70.99 272.43 72.47 270.79 73.15 270.92 73.8 270.55 73.41 269.81 71 269.24 70.54 268.68 68.69 268.19 69.16 267.24 70.94 266.84 71.61 266.29 73.84 266.54 74.85 267.41 75.48 267.21 76.3 265.94 76.6 266.14 77.78 265.83 78.01 265.4 78.5 265.28 78.48 264.82 80.15 264.95 81.31 263.95 81.69 263.12 82.29 263.33 83.94 262.15 84.69 262.35 84.74 262.63 85.37 262.5 86.36 261.66 86.52 261.08 87.37 260.65 87.1 259.91 88.31 258.19 88.36 257.63 89.88 256.4 90.62 255.31 91.58 254.72 91.9 252.71 92.57 251.81 94.54 251.42 95.25 250.51 96.41 250.66 97.01 251.24 96.28 249.54 96.86 248.19 96.57 247.75 97.24 247.14 97.12 246.49 97.39 246.11 99.27 245.3 99.64 243.93 101.43 243.28 101.19 241.67 100.48 240.12 100.76 239.22 100.5 238.43 101 237.69 100.68 236.94 100.84 236.39 100.43 235.5 99.77 235.5 99.16 234.98 98.21 235.11 97.15 232.12 98.17 230.65 98.37 229.84 98.04 229.09 99.87 224.16 Z M 285.94 304.3 288.14 303.78 290.54 300.75 293.17 300.69 293.66 299.18 294.97 298.5 297.11 298.24 298.51 297.1 299.04 293.29 302.89 291.57 304.29 293.04 304.8 293.22 305.48 293 306.59 291.97 308.3 293.05 309.85 292.96 311.57 291.89 311.77 290.89 313.31 291.13 314.77 291.9 315.77 292.06 316.42 294.07 318.23 295.45 319.03 295.65 320.48 294.36 321.79 295.03 322.71 295 323.2 296.12 325.76 296.67 327.06 297.59 328.41 299.46 329.99 300.11 331.21 301.37 331.83 301.45 333.21 303.41 334.47 304.24 335.6 308.07 336.02 308.65 338.96 309.13 340.6 308.51 341.45 308.73 342.12 309.4 340.4 310.41 340.26 311.75 338.92 313.34 338.23 313.57 338.39 314.99 337.03 316.23 338.52 318.87 339.1 321.71 339.72 322.31 340.68 322.32 341.74 324.16 342.85 324.9 343.51 324.99 343.13 326.17 344.81 327.47 347.05 327.92 347.24 328.53 348.85 329.21 348.99 329.61 348.28 331.02 349.35 332.24 349.51 335.28 349.23 337.19 352.42 339.1 352.98 339.77 354.03 340.08 354.81 341.59 354.64 342.18 355.22 342.88 356.94 343.38 358.04 344.47 361.06 346.54 362.18 346.92 362.44 348.33 362.22 348.95 361.06 349.46 360.39 350.34 360.17 351.42 358.74 352.26 357.14 351.78 356.52 350.97 355.34 350.26 353.14 352.32 350.8 352.82 349.13 354.48 348.27 354.64 347.54 354.08 346.21 354.52 346.09 353.54 345.81 353.38 344.93 353.32 344.13 353.64 343.8 353.35 343.38 354 341.18 354.4 340.19 354.27 339.71 354.73 339.23 354.71 338.18 355.69 337.39 355.31 336.2 355.62 335.34 356.5 335.61 357.22 335.03 359.69 336.34 361.58 334.62 361.19 332.92 361.59 333.26 361.81 333.35 363.07 333.19 363.74 332.53 364.35 332.71 365.02 332.28 365.09 332.95 365.9 332.71 366.18 333.09 367.48 332.99 368.67 329.5 368.59 328.71 369.24 327.77 369.39 326.91 368.92 326.64 367.93 325.38 367.84 323.71 368.71 321.02 368.58 320.13 369.41 319.61 369.35 319.04 369.12 318.95 368.47 317.69 368.17 316.59 366.9 315.75 366.48 315.7 365.85 314.41 365.14 313.36 365.26 312.91 364.82 312.26 365.38 310.71 365.35 309.93 363.83 308.74 363.85 306.99 363.27 306.61 363.53 305.12 362.56 305.03 361.89 303.57 361.58 303.17 360.75 302.33 360.59 299.91 358.5 299.57 356.64 298.89 355.4 297.71 350.03 297.07 349.7 296.13 349.82 292.6 348.41 292.06 348.73 291.38 348.48 289.91 348.69 289.53 347.29 290.33 346.83 290.34 345.96 290.83 345.65 289.87 343.73 290.51 342.67 292.35 340.93 292.45 339.71 291.28 339.29 291.4 338.68 290.91 338.35 290.63 337.23 290.92 335.96 289.24 334.78 289.5 333.79 289.03 332.96 288.24 332.48 286 332.24 285.7 331.91 285.03 332.24 285.09 332.76 284.64 333.48 284.16 333.79 283.55 333.59 283.15 334.5 282.83 334.49 281.55 332.47 281.17 332.39 281.38 332.07 280.91 331.53 281.2 331.04 280.66 330.36 280.67 329.92 280.31 329.99 280.24 329.47 279.21 329.17 278.79 329.35 278.06 328.82 277.18 329.3 275.32 328.21 276.28 327.72 277.2 325.79 277.91 325.24 278.01 324.61 276.93 322.55 274.8 321.59 274.17 320.68 274.09 320.4 274.68 320.19 274.89 317.64 273.76 317.08 274.11 315.89 273.14 313.89 273.68 312.81 275.11 311.94 275.96 311.01 277.75 311.97 279.44 310.97 282.03 310.8 282.89 308.44 283.34 308 283.36 305.89 285.52 304.91 285.94 304.3 Z M 99.87 224.16 99.43 224.21 98.97 222.35 97.72 221.94 97.78 221.45 97.33 220.68 98.01 220.43 97.77 220.08 98.21 219.69 100.17 220.01 101.64 219.37 101.93 219.41 101.94 219.76 102.92 219.82 102.59 220.41 101.71 220.52 101.91 222.02 101.28 222.35 99.87 224.16 Z" fill-rule="evenodd"/>
    <path class="geo-champ-location" id="Vorarlberg" d="M 69.16 267.24 68.69 268.19 70.54 268.68 71 269.24 73.41 269.81 73.8 270.55 73.15 270.92 72.47 270.79 70.99 272.43 71.25 273.03 71.99 273.2 72.27 273.76 72.04 274.16 72.5 274.47 72.31 275.14 72.54 276.05 72.37 277.57 70.64 279.04 70.6 279.44 70.87 281 71.33 281.42 71.45 282.2 72.03 282.67 71.58 284.53 73.03 285.57 73.01 285.98 72.2 286.95 71 287.1 70.99 287.95 71.7 288.55 71.57 288.79 69.11 289.11 69.08 290.57 67.63 290.4 66.56 291.39 66.07 291.19 65.48 292.76 63.16 296.23 63.24 298.96 64.34 299.48 64.95 299.35 65.51 301.38 65.28 302.21 64.06 303.69 61.77 305.37 62.72 306.98 64.96 308.1 65.47 309.12 64.87 310.16 65.42 311.41 64.38 311.7 63.8 311.46 63.44 312.12 63.57 312.59 62.93 313.13 62.64 314.12 62.57 315.87 61.63 317.56 60.93 318.41 60.02 318.53 59.35 319.67 58.52 319.93 58.45 320.42 58.6 321.55 59.53 322.9 59.3 323.5 59.56 324.11 59.43 324.98 60.27 326.51 61.63 327.82 62.76 328.27 62.81 328.96 62.44 329.33 62.98 331.94 62.37 332.48 60.65 332.24 60.2 332.89 58.7 333.33 57.36 331.65 57.48 330.62 56.95 330.11 53.99 330.05 53.12 329.53 53.28 327.55 52.3 326.94 52 326.09 51.26 325.72 50.71 324.49 49.83 323.55 48.55 323.93 46.9 323.3 46.11 322.68 46.08 321.79 45.69 321.16 44.47 321.67 43.7 321.05 42.3 321.56 41.37 321.37 39.74 320.44 38.81 319.28 38.17 319.37 36.96 318.33 35.04 317.78 35.56 316.96 35.13 316.85 35.01 315.34 35.47 314.33 34.66 313.34 35.21 312.7 35.26 311.75 36.25 310.67 36.31 309.96 37.13 309.24 36.83 307.62 35.23 306.68 34.98 306.15 35.05 305.63 36.05 305.03 35.65 304.39 33.92 304 33.13 305.02 31.88 305.17 31.73 305.54 31.34 305.54 30.06 304.35 28.4 303.7 27.79 302.82 26.8 302.37 26.11 301.28 22.21 301.34 21.59 300.42 19.09 300.2 17.94 299.42 18.05 298.53 16.98 298.7 16.01 298.22 15.39 297.63 15.39 297.12 12.86 297.61 11.48 297.3 11.05 298.19 10.11 298.56 8.49 298.11 7.47 296.95 8.21 295.64 8.08 294.09 8.83 294.33 9.37 293.67 10.44 293.58 10.66 290.84 10.08 289.83 9.51 289.73 9.3 289.32 9.82 288.02 10.92 286.68 9.87 285.93 9.71 284.56 10.09 283.88 9.69 283.02 8.85 283.57 8.29 283.51 7.71 282.89 7.14 281.11 5.38 279.74 3.81 279.8 4.75 279.02 4.81 276.67 5.66 275.94 6.21 274.48 5.56 273.9 4.6 272.16 3.58 271.44 3.23 271.67 2.86 271.46 4.62 268.74 3.87 267.37 1.85 265.58 1.91 265 1 264.11 2.7 262.73 3.93 259.93 6.65 258.1 7.38 257.18 8.79 252.92 9.42 252 11.57 249.8 14.32 249.72 15.59 249.23 16.79 247.74 16.96 246.34 14.71 243.99 14.69 241.47 14.17 239.14 15.69 237.34 15.79 236.6 14.39 236.05 12.02 235.66 10.72 233.58 10.06 234.83 9.29 234.71 7.96 231.49 6.08 229.59 6.03 228.08 24.47 224.35 24.49 222.44 25.23 221.17 25.81 221.09 25.44 220.59 26.41 219.29 26.01 218.8 26.86 218.56 26.95 217.41 27.54 217.25 27.43 216.84 27.74 216.41 28 216.59 27.98 216 28.36 216.29 29.22 215.08 30.72 215.45 31.87 215.13 33.07 216.41 34.06 216.59 34.37 217.92 34.18 218.66 33.63 219.09 34.1 220.73 33.09 221.83 32.94 222.65 34.23 222.87 34.4 223.24 35.9 223.78 36.4 223.7 37.32 225 38.35 225.32 38.96 225.89 38.93 225.11 39.4 224.33 39.12 223.62 39.8 222.89 40.6 223.57 41.67 223.5 42.42 223.93 43.08 225.45 43.93 225.94 45.17 225.53 46 224.7 48.34 225.35 47.93 224.79 47.89 224.02 48.34 224.18 48.88 223.57 49.14 223.66 48.49 224.84 48.48 226.07 48.79 226.41 48.41 227.49 51.48 230.44 50.58 231.07 51.31 232.99 51.88 233.66 52.87 233.75 53.53 233.31 54.2 233.45 55.77 232.73 56.52 233 57.43 234.85 57.14 235.6 57.3 236.25 58.46 236.8 58.96 238.01 60.07 238.15 60.53 237.6 61.04 237.41 61.25 237.64 61.55 239.06 61.37 240.51 62.52 242.38 61.46 243.35 61.2 244.16 60.32 244.49 59.14 244.41 58.58 245.1 60.31 246.83 59.91 247.68 61.44 253.8 63.63 250.66 65.92 252.06 68.47 251.9 68.88 251.54 68.95 249.3 69.7 249.41 70.21 249.13 70.3 248.33 71.67 248.86 72.13 249.81 73.02 249.91 73.45 250.32 75.03 249.06 75.95 250.19 75.45 250.62 75.99 251.48 74.58 253.71 73.75 254.37 73.75 255.04 72.3 257.04 72.61 257.74 71.74 258.61 72.92 259.81 73.38 261.06 72.93 261.1 72.8 261.78 71.52 263.09 70.5 263.6 69.59 263.21 69.31 263.43 68.92 264.26 68.98 265.38 68.56 265.83 68.87 266.35 68.57 266.59 68.71 267.2 69.16 267.24 Z"/>
    <path class="geo-champ-location" id="Wien" d="M 714.55 111.14 715.32 111.2 714.95 110.4 716.08 110.08 715.75 108.98 716.15 108.02 716.81 108.04 716.13 106 716.6 105.3 717.03 105.35 716.96 105.04 717.53 104.79 717.52 105.29 718.44 105.65 718.56 105.24 720.03 104.67 722.04 105.49 722.47 109.34 726.47 111.96 726.8 112.03 726.99 111.09 726.67 108.92 728.25 109.01 730.01 109.77 730.14 110.25 729.42 111.89 730.21 112.26 730.1 112.76 731.93 113.53 732.78 113.21 733.65 113.36 733 116.52 733.91 116.5 733.89 116.88 734.4 117.05 733.85 120.61 732.95 123.09 733.57 124.46 733.23 125.73 733.64 125.91 733.58 126.11 733.21 125.86 733.1 126.64 733.59 127.2 733.12 127.09 734 127.33 733.59 126.77 734.46 126.66 734.62 127.48 734.23 127.65 734.93 128.96 735.27 129 735.18 128.58 735.83 129.19 736.48 128.66 737.22 128.9 737.36 129.35 737.07 129.94 737.52 130.52 737.48 133.02 734 131.9 731.18 129.68 729.31 130.1 728.78 129.72 728.25 130.3 727.15 130 727.12 130.51 724.87 132.91 722.67 133.21 723.18 135.97 721.7 135.54 721.46 135.93 720.55 136.01 720.68 136.33 720.22 136.4 719.86 135.78 714.94 134.83 714.16 134.36 711.43 133.66 710.87 135.73 710.39 135.59 710.21 136.55 708.8 135.7 708.71 135.05 707.26 135.01 705.91 134.48 704.51 135.19 703.45 134.95 702.3 135.21 700.56 136.25 700.13 136.02 700.45 135.58 702.56 134.89 702.29 134.47 702.51 134.1 700.69 134.41 700.55 133.78 699.49 132.59 699.82 132.06 700.84 131.68 698.78 131.39 698.25 131.63 697.98 130.11 696.45 129.06 698.23 126.66 698.92 124.13 698.34 123.77 699.11 122.99 697.86 122.32 697.54 121.51 697.81 120.99 696.5 120.98 697.66 119.91 697.91 120.1 697.95 119.74 697.25 119.17 697.25 117.84 697.5 116.81 698.43 115.79 698.41 114.76 698.77 114.57 701.38 116.61 702.13 116.87 701.78 117.75 702.24 118.43 703.79 118.13 703.97 117.16 704.5 117.02 705.15 116.21 705.04 115.9 704.47 115.77 706.57 115.23 707.52 114.25 707.22 113.84 706.69 113.86 706.96 113.26 708.12 112.78 708.69 113 709.58 112.62 710.19 111.94 711.05 112.07 711.36 111.48 712.67 110.71 712.24 110.2 712.95 109.93 713.54 110.96 714.55 111.14 Z"/>
  </g>
</svg>
